<?xml version="1.0" encoding="utf-8"?>
<!-- Generator: Adobe Illustrator 27.5.0, SVG Export Plug-In . SVG Version: 6.00 Build 0)  -->
<svg version="1.1" id="Layer_1" xmlns="http://www.w3.org/2000/svg" xmlns:xlink="http://www.w3.org/1999/xlink" x="0px" y="0px"
	 viewBox="0 0 4000 4000" style="enable-background:new 0 0 4000 4000;" xml:space="preserve">
<g>
	<g>
		<g>
			<g>
				<g>
					<path style="fill-rule:evenodd;clip-rule:evenodd;fill:#0BCBFF;" d="M967.817,2163.519
						c0-514.447,417.039-931.485,931.481-931.485c514.447,0,931.485,417.039,931.485,931.485
						c0,514.442-417.039,931.481-931.485,931.481C1384.855,3095,967.817,2677.961,967.817,2163.519z"/>
				</g>
			</g>
		</g>
		<g>
			<g>
				<g>
					<g>
						<g>
							<path style="fill-rule:evenodd;clip-rule:evenodd;fill:#EA5656;" d="M2136.56,1762.912
								c169.588,53.799,382.03,86.014,512.62,21.721c130.585-64.298,330.328-226.523,430.96-86.056
								c119.672,167.047-245.426,569.11-747.108,588.934c0,0-804.029,1021.235-1050.847,799.347
								c-131.011-117.779,103.931-339.56,103.931-339.56l-31.794-543.143c0,0-134.791-9.732-135.239-141.967
								C1218.466,1880.855,1447.932,1544.444,2136.56,1762.912z"/>
						</g>
					</g>
				</g>
				<g>
					<g>
						<g>
							<path style="fill:#0F227A;" d="M1369.668,3120.903c-35.427,0-65.361-10.796-89.155-32.183
								c-26.479-23.809-40.125-53.633-40.549-88.643c-1.348-110.942,131.631-242.217,143.589-253.784l-31.602-539.873
								c-17.615-2.07-134.949-20.571-135.369-144.224c-0.259-76.357,39.775-187.558,152.913-270.654
								c119.114-87.48,349.011-163.877,767.822-31.016l0,0c101.514,32.207,354.492,98.804,510.76,21.865
								c24.885-12.256,52.209-28.027,81.138-44.727c120.403-69.502,270.249-156.006,352.956-40.542
								c32.441,45.283,30.83,110.049-4.536,182.373c-46.555,95.2-144.693,192.871-269.251,267.969
								c-100.024,60.308-263.413,133.926-474.104,142.495c-11.823,14.932-166.401,209.238-355,404.219
								c-262.507,271.387-462.222,414.717-593.596,426.016C1380.227,3120.669,1374.888,3120.903,1369.668,3120.903z
								 M1729.558,1693.789c-171.902,0-285.002,48.828-357.104,101.787c-111.626,81.982-151.125,191.475-150.872,266.601
								c0.437,128.433,131.594,139.39,132.92,139.482l2.188,0.161l0.127,2.188l31.863,544.307l-0.847,0.801
								c-1.443,1.362-144.253,137.524-142.869,250.903c0.41,33.555,13.494,62.148,38.894,84.98
								c26.226,23.579,60.364,33.77,101.396,30.215c310.608-26.714,939.497-821.23,945.813-829.253l0.715-0.903l1.153-0.049
								c210.188-8.306,373.161-81.709,472.866-141.826c123.757-74.614,221.199-171.528,267.341-265.884
								c34.522-70.596,36.284-133.545,4.966-177.266c-80.081-111.777-227.742-26.528-346.394,41.963
								c-29.002,16.738-56.397,32.554-81.431,44.878c-157.896,77.739-412.388,10.806-514.48-21.582l0,0
								C1973.294,1713.735,1839.414,1693.789,1729.558,1693.789z"/>
						</g>
					</g>
				</g>
			</g>
			<g>
				<g>
					<g>
						<path style="fill:#0F227A;" d="M1369.534,3137.095c-39.456,0-72.976-12.183-99.844-36.338
							c-29.983-26.953-45.432-60.762-45.913-100.483c-1.333-109.565,114.199-231.543,143.184-260.396l-30.391-519.189
							c-54.487-9.854-135.813-51.548-136.177-158.438c-0.271-80.337,41.489-197.066,159.519-283.755
							c122.136-89.712,357.007-168.325,782.3-33.399c207.52,65.83,393.953,74.341,498.713,22.769
							c24.404-12.017,51.504-27.661,80.195-44.224c61.089-35.264,130.33-75.234,194.829-91.582
							c78.365-19.853,138.713-1.138,179.382,55.635c36.07,50.347,34.949,120.991-3.157,198.911
							c-47.885,97.925-148.279,198.057-275.432,274.727c-100.466,60.571-263.838,134.356-474.361,144.473
							c-66.216,83.296-647.571,804.053-955.312,830.522C1381.104,3136.841,1375.254,3137.095,1369.534,3137.095z M1729.507,1709.927
							c-167.571,0-277.495,47.3-347.471,98.696c-106.851,78.477-144.497,185.61-144.265,253.501
							c0.383,112.93,113.149,123.022,117.949,123.394c9.312,0.728,16.711,8.223,17.258,17.544l31.794,543.145
							c0.322,5.513-1.814,10.889-5.823,14.678c-1.392,1.318-139.128,132.764-137.8,238.979c0.366,29.233,11.333,53.145,33.53,73.101
							c23.081,20.752,52.241,29.297,89.185,26.123c303.647-26.108,928.21-815.171,934.485-823.14
							c3.384-4.297,8.479-6.895,13.945-7.109c339.158-13.403,635.625-213.218,726.304-398.652
							c31.785-64.99,34.038-122.07,6.348-160.723c-71.533-99.854-206.267-22.07-325.139,46.553
							c-29.241,16.88-56.858,32.822-82.373,45.386c-163.164,80.322-422.568,12.3-526.526-20.679l0,0
							C1969.924,1729.653,1837.695,1709.927,1729.507,1709.927z"/>
					</g>
				</g>
			</g>
			<g>
				<g>
					<g>
						<g>
							<path style="fill-rule:evenodd;clip-rule:evenodd;fill:#EA5656;" d="M1450.39,2167.783c0,0-113.528-10.512-155.661,98.063
								c-42.138,108.58,35.387,173.48,35.387,173.48s-91.265,240.707,47.534,305.229
								c138.799,64.522,481.232-360.767,314.316-510.433"/>
						</g>
					</g>
				</g>
				<g>
					<g>
						<g>
							<path style="fill:#0F227A;" d="M1409.946,2753.823c-11.904,0-23.098-2.231-33.352-7.002
								c-133.284-61.958-57.041-285.464-49.407-306.768c-10.151-9.419-74.001-74.072-34.79-175.112
								c42.327-109.067,157.087-99.741,158.223-99.648l-0.459,4.98c-1.111-0.093-112.161-9.019-153.101,96.475
								c-41.016,105.688,33.896,170.024,34.658,170.659l1.365,1.143l-0.632,1.66c-0.903,2.388-88.843,239.277,46.252,302.08
								c72.896,33.906,201.711-71.997,279.231-189.541c69.28-105.044,114.163-243.418,32.361-316.768l3.34-3.721
								c84.167,75.469,38.901,216.46-31.526,323.242C1592.507,2661.035,1486.646,2753.814,1409.946,2753.823z"/>
						</g>
					</g>
				</g>
			</g>
			<g>
				<g>
					<g>
						<path style="fill:#0F227A;" d="M1409.768,2769.985c-14.119,0.005-27.537-2.69-39.998-8.481
							c-135.732-63.096-78.54-265.269-61.284-317.002c-29.495-31.333-64.59-99.331-31.179-185.42
							c37.361-96.284,130.659-114.018,174.807-109.907c10.276,0.952,17.837,10.054,16.885,20.332
							c-0.95,10.264-10.066,17.842-20.281,16.89c-4.253-0.366-100.249-7.378-136.567,86.211
							c-36.543,94.165,27.292,150.112,30.029,152.446c5.999,5.122,8.206,13.521,5.41,20.898
							c-0.847,2.237-83.464,225.225,37.937,281.655c57.112,26.553,175.681-57.607,258.894-183.77
							c65.566-99.414,109.209-229.321,35.068-295.801c-7.686-6.895-8.33-18.706-1.438-26.392c6.89-7.681,18.704-8.335,26.389-1.44
							c91.829,82.339,45.322,231.797-28.818,344.209C1604.436,2672.349,1494.712,2769.976,1409.768,2769.985z"/>
					</g>
				</g>
			</g>
			<g>
				<g>
					<g>
						<path style="fill:#0F227A;" d="M2332.752,2306.763c-3.706,0-7.451-1.104-10.716-3.394c-8.45-5.928-10.493-17.583-4.565-26.03
							c1.069-1.528,107.432-153.271,140.181-212.646c4.988-9.033,16.352-12.329,25.39-7.334c9.038,4.985,12.324,16.353,7.339,25.391
							c-33.721,61.128-137.896,209.761-142.315,216.055C2344.431,2303.989,2338.638,2306.763,2332.752,2306.763z"/>
					</g>
				</g>
			</g>
			<g>
				<g>
					<g>
						<path style="fill:#0F227A;" d="M1505.381,2199.912c-36.372,0-104.431-4.854-149.836-48.867
							c-29.299-28.403-44.246-68.008-44.426-117.72c-0.308-84.36,60.764-158.784,155.591-189.6
							c86.514-28.12,169.333-8.96,210.996,48.813c57.161,79.273,21.172,149.331-10.2,180.342
							c-2.61,34.78-16.545,64.868-40.583,87.412c-30.537,28.642-71.921,40.312-99.341,39.243c-1.301-0.044-3.455,0.039-6.343,0.112
							C1517.112,2199.766,1511.726,2199.912,1505.381,2199.912z M1544.126,1868.291c-20.84,0-43.125,3.589-65.864,10.981
							c-60.051,19.517-130.068,71.538-129.766,153.916c0.142,39.263,11.267,69.888,33.064,91.02
							c42.019,40.732,114.749,38.75,138.652,38.076c4.038-0.103,7.068-0.166,8.867-0.093c15.891,0.625,48.218-6.606,72.275-29.165
							c18.682-17.515,28.499-40.786,29.182-69.165c0.129-5.317,2.515-10.322,6.558-13.769c6.868-5.923,65.078-59.717,10.293-135.689
							C1625.689,1884.312,1588.135,1868.291,1544.126,1868.291z"/>
					</g>
				</g>
			</g>
			<g>
				<g>
					<g>
						<path style="fill:#0F227A;" d="M1368.316,3137.085c-39.109,0-72.207-12.036-98.943-36.069
							c-29.98-26.953-45.427-60.757-45.911-100.474c-1.335-109.565,114.199-231.572,143.196-260.444l-2.7-45.493
							c-0.525-8.828,5.195-16.724,13.552-19.087c0.999-0.322,2-0.576,3.005-0.747c1.418-0.244,2.856-0.317,4.297-0.225
							c2.407,0.156,59.751,4.15,128.132,40.156c62.876,33.105,147.488,100.742,193.513,234.951c0.535,1.563,0.793,2.891,0.935,3.75
							c1.687,7.026-0.833,14.468-6.582,19.014c-91.443,72.31-171.606,121.348-238.267,145.747
							C1428.076,3130.781,1396.621,3137.085,1368.316,3137.085z M1402.6,2714.829l1.875,31.577
							c0.327,5.518-1.807,10.898-5.82,14.692c-1.392,1.318-139.153,132.803-137.817,239.028
							c0.366,29.233,11.333,53.145,33.525,73.096c66.653,59.917,192.097,18.877,372.966-122.041
							C1600.161,2769.448,1455.747,2725.142,1402.6,2714.829z M1706.922,2951.768c0,0,0,0.005,0.002,0.005
							C1706.922,2951.772,1706.922,2951.768,1706.922,2951.768z M1706.909,2951.738c0.002,0.005,0.005,0.01,0.007,0.015
							C1706.914,2951.748,1706.912,2951.743,1706.909,2951.738z M1382.612,2693.496h0.049H1382.612z"/>
					</g>
				</g>
			</g>
			<g>
				<g>
					<g>
						<path style="fill:#0F227A;" d="M1329.8,2458.511c-2.329,0-4.7-0.439-6.992-1.367c-9.568-3.862-14.192-14.751-10.33-24.316
							c1.729-4.287,43.015-105.517,101.052-156.953c7.725-6.836,19.534-6.128,26.382,1.597c6.846,7.725,6.133,19.536-1.592,26.382
							c-51.414,45.557-90.793,141.997-91.187,142.969C1344.194,2454.092,1337.193,2458.511,1329.8,2458.511z"/>
					</g>
				</g>
			</g>
			<g>
				<g>
					<g>
						<path style="fill:#0F227A;" d="M1408.018,2769.722c-13.87,0-26.96-2.617-38.999-8.213
							c-136.174-63.306-78.21-266.65-61.177-317.563c-2.666-2.974-5.767-6.621-9.075-10.884c-5.22-6.724-5.234-16.123-0.042-22.866
							c14.25-18.496,30.222-33.618,47.471-44.951c2.043-1.343,4.329-2.271,6.731-2.729c0.586-0.117,14.624-2.778,36.936-3.682
							c60.349-2.485,210.818,7.866,303.232,156.411c3.66,5.884,3.765,13.311,0.271,19.292
							C1620.791,2658.906,1498.193,2769.712,1408.018,2769.722z M1337.957,2421.475c2.441,2.593,3.97,4.019,4.001,4.048
							c5.586,5.171,7.512,13.247,4.814,20.366c-0.842,2.236-83.406,225.288,38.003,281.723
							c60.239,28.013,189.622-69.458,270.461-202.109c-79.238-118.354-198.701-131.972-263.857-129.326c0,0,0,0-0.002,0
							c-13.145,0.537-22.922,1.748-27.847,2.471C1354.595,2404.902,1346.038,2412.544,1337.957,2421.475z M1390.62,2377.505h0.049
							H1390.62z"/>
					</g>
				</g>
			</g>
			<g>
				<g>
					<g>
						<path style="fill:#0F227A;" d="M2103.792,2289.8c-82.358,0-276.086-97.451-289.302-160.791
							c-7.891-37.807-5.171-68.74-2.036-86.577c-45.107-20.278-190.383-84.116-279.639-106.309
							c-10.017-2.49-16.118-12.627-13.628-22.642c2.493-10.019,12.654-16.108,22.646-13.628
							c109.602,27.246,292.346,111.333,300.071,114.897c8.625,3.979,12.891,13.799,9.917,22.822
							c-0.083,0.259-10.906,35.093-0.745,83.799c3.171,15.195,43.076,49.814,110.784,84.043
							c61.045,30.859,123.452,50.425,148.406,46.597c55.586-8.604,91.338-53.374,91.695-53.823c5-6.362,13.525-8.784,21.133-5.996
							l132.998,48.818c9.688,3.555,14.661,14.292,11.104,23.984c-3.555,9.688-14.282,14.673-23.984,11.104l-121.131-44.463
							c-16.467,16.909-53.943,49.238-106.096,57.31C2112.268,2289.521,2108.186,2289.8,2103.792,2289.8z"/>
					</g>
				</g>
			</g>
			<g>
				<g>
					<g>
						<path style="fill:#0F227A;" d="M1649.197,2083.613c-0.393,0-0.786-0.015-1.184-0.039
							c-10.286-0.645-18.103-9.487-17.488-19.771c0.046-0.869,2.234-48.359-26.497-71.362
							c-19.219-15.386-49.417-17.383-89.753-5.947c-9.927,2.813-20.261-2.949-23.079-12.876
							c-2.817-9.932,2.949-20.264,12.878-23.081c52.776-14.981,94.343-10.63,123.547,12.915
							c43.889,35.376,40.381,99.907,40.21,102.637C1667.212,2075.991,1658.984,2083.613,1649.197,2083.613z"/>
					</g>
				</g>
			</g>
			<g>
				<g>
					<g>
						<path style="fill:#0F227A;" d="M2929.087,1923.208c-46.706,0.005-95.754-19.951-113.423-29.521
							c-9.075-4.912-12.446-16.255-7.532-25.332c4.917-9.072,16.255-12.451,25.334-7.529
							c23.677,12.817,88.465,35.591,126.775,19.756c13.015-5.381,21.06-14.531,25.32-28.799c3.191-10.684,2.109-19.937-3.403-29.131
							c-18.877-31.465-81.912-50.283-104.604-54.878c-10.112-2.051-16.658-11.904-14.619-22.012
							c2.039-10.117,11.889-16.709,21.992-14.629c9.992,2.007,98.503,21.079,129.248,72.236
							c10.862,18.071,13.352,38.511,7.202,59.107c-7.415,24.834-23.616,43.037-46.853,52.646
							C2960.532,1920.908,2944.941,1923.208,2929.087,1923.208z"/>
					</g>
				</g>
			</g>
			<g>
				<g>
					<g>
						<g>
							<path style="fill-rule:evenodd;clip-rule:evenodd;fill:#EA5656;" d="M2136.56,1762.912
								c169.588,53.799,382.03,86.014,512.62,21.721c130.585-64.298,330.328-226.523,430.96-86.056
								c119.672,167.047-245.426,569.11-747.108,588.934c0,0-804.029,1021.235-1050.847,799.347
								c-131.011-117.779,103.931-339.56,103.931-339.56l-31.794-543.143c0,0-134.791-9.732-135.239-141.967
								C1218.466,1880.855,1447.932,1544.444,2136.56,1762.912z"/>
						</g>
					</g>
				</g>
				<g>
					<g>
						<g>
							<path style="fill:#0F227A;" d="M1369.668,3120.903c-35.427,0-65.361-10.796-89.155-32.183
								c-26.479-23.809-40.125-53.633-40.549-88.643c-1.348-110.942,131.631-242.217,143.589-253.784l-31.602-539.873
								c-17.615-2.07-134.949-20.571-135.369-144.224c-0.259-76.357,39.775-187.558,152.913-270.654
								c119.114-87.48,349.011-163.877,767.822-31.016l0,0c101.514,32.207,354.492,98.804,510.76,21.865
								c24.885-12.256,52.209-28.027,81.138-44.727c120.403-69.502,270.249-156.006,352.956-40.542
								c32.441,45.283,30.83,110.049-4.536,182.373c-46.555,95.2-144.693,192.871-269.251,267.969
								c-100.024,60.308-263.413,133.926-474.104,142.495c-11.823,14.932-166.401,209.238-355,404.219
								c-262.507,271.387-462.222,414.717-593.596,426.016C1380.227,3120.669,1374.888,3120.903,1369.668,3120.903z
								 M1729.558,1693.789c-171.902,0-285.002,48.828-357.104,101.787c-111.626,81.982-151.125,191.475-150.872,266.601
								c0.437,128.433,131.594,139.39,132.92,139.482l2.188,0.161l0.127,2.188l31.863,544.307l-0.847,0.801
								c-1.443,1.362-144.253,137.524-142.869,250.903c0.41,33.555,13.494,62.148,38.894,84.98
								c26.226,23.579,60.364,33.77,101.396,30.215c310.608-26.714,939.497-821.23,945.813-829.253l0.715-0.903l1.153-0.049
								c210.188-8.306,373.161-81.709,472.866-141.826c123.757-74.614,221.199-171.528,267.341-265.884
								c34.522-70.596,36.284-133.545,4.966-177.266c-80.081-111.777-227.742-26.528-346.394,41.963
								c-29.002,16.738-56.397,32.554-81.431,44.878c-157.896,77.739-412.388,10.806-514.48-21.582l0,0
								C1973.294,1713.735,1839.414,1693.789,1729.558,1693.789z"/>
						</g>
					</g>
				</g>
			</g>
			<g>
				<g>
					<g>
						<path style="fill:#0F227A;" d="M1369.534,3137.095c-39.456,0-72.976-12.183-99.844-36.338
							c-29.983-26.953-45.432-60.762-45.913-100.483c-1.333-109.565,114.199-231.543,143.184-260.396l-30.391-519.189
							c-54.487-9.854-135.813-51.548-136.177-158.438c-0.271-80.337,41.489-197.066,159.519-283.755
							c122.136-89.712,357.007-168.325,782.3-33.399c207.52,65.83,393.953,74.341,498.713,22.769
							c24.404-12.017,51.504-27.661,80.195-44.224c61.089-35.264,130.33-75.234,194.829-91.582
							c78.365-19.853,138.713-1.138,179.382,55.635c36.07,50.347,34.949,120.991-3.157,198.911
							c-47.885,97.925-148.279,198.057-275.432,274.727c-100.466,60.571-263.838,134.356-474.361,144.473
							c-66.216,83.296-647.571,804.053-955.312,830.522C1381.104,3136.841,1375.254,3137.095,1369.534,3137.095z M1729.507,1709.927
							c-167.571,0-277.495,47.3-347.471,98.696c-106.851,78.477-144.497,185.61-144.265,253.501
							c0.383,112.93,113.149,123.022,117.949,123.394c9.312,0.728,16.711,8.223,17.258,17.544l31.794,543.145
							c0.322,5.513-1.814,10.889-5.823,14.678c-1.392,1.318-139.128,132.764-137.8,238.979c0.366,29.233,11.333,53.145,33.53,73.101
							c23.081,20.752,52.241,29.297,89.185,26.123c303.647-26.108,928.21-815.171,934.485-823.14
							c3.384-4.297,8.479-6.895,13.945-7.109c339.158-13.403,635.625-213.218,726.304-398.652
							c31.785-64.99,34.038-122.07,6.348-160.723c-71.533-99.854-206.267-22.07-325.139,46.553
							c-29.241,16.88-56.858,32.822-82.373,45.386c-163.164,80.322-422.568,12.3-526.526-20.679l0,0
							C1969.924,1729.653,1837.695,1709.927,1729.507,1709.927z"/>
					</g>
				</g>
			</g>
			<g>
				<g>
					<g>
						<g>
							<path style="fill-rule:evenodd;clip-rule:evenodd;fill:#EA5656;" d="M1450.39,2167.783c0,0-113.528-10.512-155.661,98.063
								c-42.138,108.58,35.387,173.48,35.387,173.48s-91.265,240.707,47.534,305.229
								c138.799,64.522,481.232-360.767,314.316-510.433"/>
						</g>
					</g>
				</g>
				<g>
					<g>
						<g>
							<path style="fill:#0F227A;" d="M1409.946,2753.823c-11.904,0-23.098-2.231-33.352-7.002
								c-133.284-61.958-57.041-285.464-49.407-306.768c-10.151-9.419-74.001-74.072-34.79-175.112
								c42.327-109.067,157.087-99.741,158.223-99.648l-0.459,4.98c-1.111-0.093-112.161-9.019-153.101,96.475
								c-41.016,105.688,33.896,170.024,34.658,170.659l1.365,1.143l-0.632,1.66c-0.903,2.388-88.843,239.277,46.252,302.08
								c72.896,33.906,201.711-71.997,279.231-189.541c69.28-105.044,114.163-243.418,32.361-316.768l3.34-3.721
								c84.167,75.469,38.901,216.46-31.526,323.242C1592.507,2661.035,1486.646,2753.814,1409.946,2753.823z"/>
						</g>
					</g>
				</g>
			</g>
			<g>
				<g>
					<g>
						<path style="fill:#0F227A;" d="M1409.768,2769.985c-14.119,0.005-27.537-2.69-39.998-8.481
							c-135.732-63.096-78.54-265.269-61.284-317.002c-29.495-31.333-64.59-99.331-31.179-185.42
							c37.361-96.284,130.659-114.018,174.807-109.907c10.276,0.952,17.837,10.054,16.885,20.332
							c-0.95,10.264-10.066,17.842-20.281,16.89c-4.253-0.366-100.249-7.378-136.567,86.211
							c-36.543,94.165,27.292,150.112,30.029,152.446c5.999,5.122,8.206,13.521,5.41,20.898
							c-0.847,2.237-83.464,225.225,37.937,281.655c57.112,26.553,175.681-57.607,258.894-183.77
							c65.566-99.414,109.209-229.321,35.068-295.801c-7.686-6.895-8.33-18.706-1.438-26.392c6.89-7.681,18.704-8.335,26.389-1.44
							c91.829,82.339,45.322,231.797-28.818,344.209C1604.436,2672.349,1494.712,2769.976,1409.768,2769.985z"/>
					</g>
				</g>
			</g>
			<g>
				<g>
					<g>
						<path style="fill:#0F227A;" d="M2332.752,2306.763c-3.706,0-7.451-1.104-10.716-3.394c-8.45-5.928-10.493-17.583-4.565-26.03
							c1.069-1.528,107.432-153.271,140.181-212.646c4.988-9.033,16.352-12.329,25.39-7.334c9.038,4.985,12.324,16.353,7.339,25.391
							c-33.721,61.128-137.896,209.761-142.315,216.055C2344.431,2303.989,2338.638,2306.763,2332.752,2306.763z"/>
					</g>
				</g>
			</g>
			<g>
				<g>
					<g>
						<path style="fill:#0F227A;" d="M1505.381,2199.912c-36.372,0-104.431-4.854-149.836-48.867
							c-29.299-28.403-44.246-68.008-44.426-117.72c-0.308-84.36,60.764-158.784,155.591-189.6
							c86.514-28.12,169.333-8.96,210.996,48.813c57.161,79.273,21.172,149.331-10.2,180.342
							c-2.61,34.78-16.545,64.868-40.583,87.412c-30.537,28.642-71.921,40.312-99.341,39.243c-1.301-0.044-3.455,0.039-6.343,0.112
							C1517.112,2199.766,1511.726,2199.912,1505.381,2199.912z M1544.126,1868.291c-20.84,0-43.125,3.589-65.864,10.981
							c-60.051,19.517-130.068,71.538-129.766,153.916c0.142,39.263,11.267,69.888,33.064,91.02
							c42.019,40.732,114.749,38.75,138.652,38.076c4.038-0.103,7.068-0.166,8.867-0.093c15.891,0.625,48.218-6.606,72.275-29.165
							c18.682-17.515,28.499-40.786,29.182-69.165c0.129-5.317,2.515-10.322,6.558-13.769c6.868-5.923,65.078-59.717,10.293-135.689
							C1625.689,1884.312,1588.135,1868.291,1544.126,1868.291z"/>
					</g>
				</g>
			</g>
			<g>
				<g>
					<g>
						<path style="fill:#0F227A;" d="M1368.316,3137.085c-39.109,0-72.207-12.036-98.943-36.069
							c-29.98-26.953-45.427-60.757-45.911-100.474c-1.335-109.565,114.199-231.572,143.196-260.444l-2.7-45.493
							c-0.525-8.828,5.195-16.724,13.552-19.087c0.999-0.322,2-0.576,3.005-0.747c1.418-0.244,2.856-0.317,4.297-0.225
							c2.407,0.156,59.751,4.15,128.132,40.156c62.876,33.105,147.488,100.742,193.513,234.951c0.535,1.563,0.793,2.891,0.935,3.75
							c1.687,7.026-0.833,14.468-6.582,19.014c-91.443,72.31-171.606,121.348-238.267,145.747
							C1428.076,3130.781,1396.621,3137.085,1368.316,3137.085z M1402.6,2714.829l1.875,31.577
							c0.327,5.518-1.807,10.898-5.82,14.692c-1.392,1.318-139.153,132.803-137.817,239.028
							c0.366,29.233,11.333,53.145,33.525,73.096c66.653,59.917,192.097,18.877,372.966-122.041
							C1600.161,2769.448,1455.747,2725.142,1402.6,2714.829z M1706.922,2951.768c0,0,0,0.005,0.002,0.005
							C1706.922,2951.772,1706.922,2951.768,1706.922,2951.768z M1706.909,2951.738c0.002,0.005,0.005,0.01,0.007,0.015
							C1706.914,2951.748,1706.912,2951.743,1706.909,2951.738z M1382.612,2693.496h0.049H1382.612z"/>
					</g>
				</g>
			</g>
			<g>
				<g>
					<g>
						<path style="fill:#0F227A;" d="M1329.8,2458.511c-2.329,0-4.7-0.439-6.992-1.367c-9.568-3.862-14.192-14.751-10.33-24.316
							c1.729-4.287,43.015-105.517,101.052-156.953c7.725-6.836,19.534-6.128,26.382,1.597c6.846,7.725,6.133,19.536-1.592,26.382
							c-51.414,45.557-90.793,141.997-91.187,142.969C1344.194,2454.092,1337.193,2458.511,1329.8,2458.511z"/>
					</g>
				</g>
			</g>
			<g>
				<g>
					<g>
						<path style="fill:#0F227A;" d="M1408.018,2769.722c-13.87,0-26.96-2.617-38.999-8.213
							c-136.174-63.306-78.21-266.65-61.177-317.563c-2.666-2.974-5.767-6.621-9.075-10.884c-5.22-6.724-5.234-16.123-0.042-22.866
							c14.25-18.496,30.222-33.618,47.471-44.951c2.043-1.343,4.329-2.271,6.731-2.729c0.586-0.117,14.624-2.778,36.936-3.682
							c60.349-2.485,210.818,7.866,303.232,156.411c3.66,5.884,3.765,13.311,0.271,19.292
							C1620.791,2658.906,1498.193,2769.712,1408.018,2769.722z M1337.957,2421.475c2.441,2.593,3.97,4.019,4.001,4.048
							c5.586,5.171,7.512,13.247,4.814,20.366c-0.842,2.236-83.406,225.288,38.003,281.723
							c60.239,28.013,189.622-69.458,270.461-202.109c-79.238-118.354-198.701-131.972-263.857-129.326c0,0,0,0-0.002,0
							c-13.145,0.537-22.922,1.748-27.847,2.471C1354.595,2404.902,1346.038,2412.544,1337.957,2421.475z M1390.62,2377.505h0.049
							H1390.62z"/>
					</g>
				</g>
			</g>
			<g>
				<g>
					<g>
						<path style="fill:#0F227A;" d="M2103.792,2289.8c-82.358,0-276.086-97.451-289.302-160.791
							c-7.891-37.807-5.171-68.74-2.036-86.577c-45.107-20.278-190.383-84.116-279.639-106.309
							c-10.017-2.49-16.118-12.627-13.628-22.642c2.493-10.019,12.654-16.108,22.646-13.628
							c109.602,27.246,292.346,111.333,300.071,114.897c8.625,3.979,12.891,13.799,9.917,22.822
							c-0.083,0.259-10.906,35.093-0.745,83.799c3.171,15.195,43.076,49.814,110.784,84.043
							c61.045,30.859,123.452,50.425,148.406,46.597c55.586-8.604,91.338-53.374,91.695-53.823c5-6.362,13.525-8.784,21.133-5.996
							l132.998,48.818c9.688,3.555,14.661,14.292,11.104,23.984c-3.555,9.688-14.282,14.673-23.984,11.104l-121.131-44.463
							c-16.467,16.909-53.943,49.238-106.096,57.31C2112.268,2289.521,2108.186,2289.8,2103.792,2289.8z"/>
					</g>
				</g>
			</g>
			<g>
				<g>
					<g>
						<path style="fill:#0F227A;" d="M1649.197,2083.613c-0.393,0-0.786-0.015-1.184-0.039
							c-10.286-0.645-18.103-9.487-17.488-19.771c0.046-0.869,2.234-48.359-26.497-71.362
							c-19.219-15.386-49.417-17.383-89.753-5.947c-9.927,2.813-20.261-2.949-23.079-12.876
							c-2.817-9.932,2.949-20.264,12.878-23.081c52.776-14.981,94.343-10.63,123.547,12.915
							c43.889,35.376,40.381,99.907,40.21,102.637C1667.212,2075.991,1658.984,2083.613,1649.197,2083.613z"/>
					</g>
				</g>
			</g>
			<g>
				<g>
					<g>
						<path style="fill:#0F227A;" d="M2929.087,1923.208c-46.706,0.005-95.754-19.951-113.423-29.521
							c-9.075-4.912-12.446-16.255-7.532-25.332c4.917-9.072,16.255-12.451,25.334-7.529
							c23.677,12.817,88.465,35.591,126.775,19.756c13.015-5.381,21.06-14.531,25.32-28.799c3.191-10.684,2.109-19.937-3.403-29.131
							c-18.877-31.465-81.912-50.283-104.604-54.878c-10.112-2.051-16.658-11.904-14.619-22.012
							c2.039-10.117,11.889-16.709,21.992-14.629c9.992,2.007,98.503,21.079,129.248,72.236
							c10.862,18.071,13.352,38.511,7.202,59.107c-7.415,24.834-23.616,43.037-46.853,52.646
							C2960.532,1920.908,2944.941,1923.208,2929.087,1923.208z"/>
					</g>
				</g>
			</g>
			<g>
				<g>
					<g>
						<path style="fill-rule:evenodd;clip-rule:evenodd;fill:#E8C49C;" d="M2136.56,1762.912
							c169.588,53.799,382.03,86.014,512.62,21.721c130.585-64.298,330.328-226.523,430.96-86.056
							c119.672,167.047-245.426,569.11-747.108,588.934c0,0-804.029,1021.235-1050.847,799.347
							c-131.011-117.779,103.931-339.56,103.931-339.56l-31.794-543.143c0,0-134.791-9.732-135.239-141.967
							C1218.466,1880.855,1447.932,1544.444,2136.56,1762.912z"/>
					</g>
				</g>
			</g>
			<g>
				<g>
					<g>
						<path style="fill:#FFFFFF;" d="M2677.5,1827.5c0,0,20,280,275,230l115-165l33.515-93.531l-5.26-70.153l-44.504-60.611
							L2987.5,1652.5C2987.5,1652.5,2837.5,1697.5,2677.5,1827.5z"/>
					</g>
				</g>
			</g>
			<g style="opacity:0.2;enable-background:new    ;">
				<g>
					<g>
						<path style="fill-rule:evenodd;clip-rule:evenodd;fill:#0F227A;" d="M2403.393,2094.571
							C2169.4,2400.562,1465.677,3188.78,1242.14,2999.256c0.21,31.85,10.835,62.167,39.129,87.602
							c246.814,221.884,1050.786-799.226,1050.786-799.226c17.73-0.701,124.586-212.282,141.962-213.913
							C2483.212,2044.771,2446.078,2038.749,2403.393,2094.571z"/>
					</g>
				</g>
			</g>
			<g style="opacity:0.2;enable-background:new    ;">
				<g>
					<g>
						<path style="fill-rule:evenodd;clip-rule:evenodd;fill:#0F227A;" d="M1282.941,1883.214
							c-42.068,60.181-61.2,123.918-61.027,175.349c0.406,120.297,107.463,138.313,127.605,140.747
							c137.108-48.067,239.446-216.23,239.446-216.23C1233.239,2194.349,1267.299,1952.422,1282.941,1883.214z"/>
					</g>
				</g>
			</g>
			<g>
				<g>
					<g>
						<path style="fill-rule:evenodd;clip-rule:evenodd;fill:#18DDE6;" d="M1383.63,2693.2c-0.346,0.056-0.673,0.234-1.018,0.295
							l3.21,54.019c0,0-234.965,221.827-103.954,339.607c86.654,77.898,242.24,1.205,407.352-129.362
							c-0.234-0.687-0.206-1.355-0.439-2.042C1603.532,2707.132,1383.63,2693.2,1383.63,2693.2z"/>
					</g>
				</g>
			</g>
			<g style="opacity:0.6;enable-background:new    ;">
				<g>
					<g>
						<path style="fill-rule:evenodd;clip-rule:evenodd;fill:#FDFDFD;" d="M1403.103,2725.316c0,0,209.731,97.278,213.586,204.129
							c1.383,38.209-48.791,103.408-156.721,170.719c0,0,179.302-96.904,233.265-143.906c0,0-123.596-305.215-295.352-218.173"/>
					</g>
				</g>
			</g>
			<g style="opacity:0.2;enable-background:new    ;">
				<g>
					<g>
						<path style="fill-rule:evenodd;clip-rule:evenodd;fill:#0F227A;" d="M1651.403,2873.249
							c-170.34,129.03-323.586,197.583-408.371,126.731c0.019,2.486-0.159,4.98,0,7.447c0.177,2.841,0.365,5.658,0.729,8.466
							c0.804,6.027,2.196,11.97,3.943,17.815c0.729,2.495,1.42,4.985,2.336,7.442c2.607,6.906,5.915,13.615,10.073,20.151
							c0.696,1.102,1.154,2.266,1.897,3.359c5.406,7.886,12.007,15.441,20.001,22.627c1.532,1.378,3.247,2.369,4.822,3.654
							c5.036,4.06,10.162,7.835,15.619,10.947c2.943,1.696,5.994,3.102,9.054,4.528c5.462,2.518,11.115,4.583,16.937,6.279
							c2.588,0.757,5.078,1.738,7.737,2.336c8.625,1.929,17.563,3.042,26.865,3.359c1.481,0.047,3.028-0.014,4.527,0
							c7.957,0.056,16.273-0.584,24.673-1.607c3.238-0.402,6.485-0.761,9.783-1.313c2.859-0.477,5.854-1.308,8.76-1.902
							c13.105-2.682,26.626-6.494,40.587-11.386c2.859-0.995,5.723-1.836,8.615-2.92c34.163-12.867,70.488-31.523,108.337-55.042
							c30.999-19.268,63.031-42.339,95.484-67.017c8.438-6.419,16.908-12.989,25.407-19.712c-0.112-0.532-0.107-1.065-0.294-1.607
							C1678.267,2924.815,1665.573,2897.418,1651.403,2873.249z"/>
					</g>
				</g>
			</g>
			<g style="opacity:0.6;enable-background:new    ;">
				<g>
					<g>
						<path style="fill-rule:evenodd;clip-rule:evenodd;fill:#FDFDFD;" d="M2354.145,2260.627c0,0-121.18-79.786-161.674-48.725
							c-40.498,31.06-38.54,51.487-78.029,55.448c-39.493,3.967-252.402-71.759-274.431-136.337
							c-22.029-64.583,7.877-47.87-1.355-91.629c-9.232-43.754-145.466-101.712-238.348-121.433c0,0-27.668,16.497,3.425,25.468
							c109.608,31.63,197.14,77.613,202.298,103.693c4.252,21.496-15.395,48.263-0.294,93.484
							c19.165,57.387,239.161,173.228,303.29,162.828c70.848-11.493,68.189-49.973,98.222-60.046
							c17.745-5.948,25.454-5.803,129.268,34.667"/>
					</g>
				</g>
			</g>
			<g style="opacity:0.6;enable-background:new    ;">
				<g>
					<g>
						<path style="fill-rule:evenodd;clip-rule:evenodd;fill:#FDFDFD;" d="M2962.033,1642.339
							c-26.533,1.738-54.771,9.391-83.365,20.441c254.112,5.606,179.292,241.927,179.292,241.927
							c1.243-0.463,2.416-1.126,3.649-1.607c46.063-78.833,55.752-153.484,18.544-205.428
							C3048.706,1653.776,3007.708,1639.339,2962.033,1642.339z"/>
					</g>
				</g>
			</g>
			<g>
				<g>
					<g>
						<path style="fill:#0F227A;" d="M1369.534,3137.095c-39.456,0-72.976-12.183-99.844-36.338
							c-29.983-26.953-45.432-60.762-45.913-100.483c-1.333-109.565,114.199-231.543,143.184-260.396l-30.391-519.189
							c-54.487-9.854-135.813-51.548-136.177-158.438c-0.271-80.337,41.489-197.066,159.519-283.755
							c122.136-89.712,357.007-168.325,782.3-33.399c207.52,65.83,393.953,74.341,498.713,22.769
							c24.404-12.017,51.504-27.661,80.195-44.224c61.089-35.264,130.33-75.234,194.829-91.582
							c78.365-19.853,138.713-1.138,179.382,55.635c36.07,50.347,34.949,120.991-3.157,198.911
							c-47.885,97.925-148.279,198.057-275.432,274.727c-100.466,60.571-263.838,134.356-474.361,144.473
							c-66.216,83.296-647.571,804.053-955.312,830.522C1381.104,3136.841,1375.254,3137.095,1369.534,3137.095z M1729.507,1709.927
							c-167.571,0-277.495,47.3-347.471,98.696c-106.851,78.477-144.497,185.61-144.265,253.501
							c0.383,112.93,113.149,123.022,117.949,123.394c9.312,0.728,16.711,8.223,17.258,17.544l31.794,543.145
							c0.322,5.513-1.814,10.889-5.823,14.678c-1.392,1.318-139.128,132.764-137.8,238.979c0.366,29.233,11.333,53.145,33.53,73.101
							c23.081,20.752,52.241,29.297,89.185,26.123c303.647-26.108,928.21-815.171,934.485-823.14
							c3.384-4.297,8.479-6.895,13.945-7.109c339.158-13.403,635.625-213.218,726.304-398.652
							c31.785-64.99,34.038-122.07,6.348-160.723c-71.533-99.854-206.267-22.07-325.139,46.553
							c-29.241,16.88-56.858,32.822-82.373,45.386c-163.164,80.322-422.568,12.3-526.526-20.679l0,0
							C1969.924,1729.653,1837.695,1709.927,1729.507,1709.927z"/>
					</g>
				</g>
			</g>
			<g>
				<g>
					<g>
						<path style="fill:#0F227A;" d="M2317.471,2277.339c10.585-18.555,22.726-36.147,35.111-53.511
							c12.367-17.393,25.61-34.18,38.739-51.052c13.17-16.848,26.493-33.579,39.899-50.278l40.46-50.068l0.031-0.037
							c0.939-1.162,2.64-1.343,3.801-0.403c0.919,0.742,1.222,1.968,0.844,3.02c-7.424,20.552-16.79,40.159-26.401,59.514
							c-9.763,19.282-19.957,38.311-30.634,57c-10.698,18.677-21.464,37.317-33.296,55.225
							c-11.819,17.93-24.005,35.547-37.955,52.058c-6.689,7.915-18.528,8.909-26.444,2.222c-7.021-5.933-8.597-15.92-4.194-23.625
							L2317.471,2277.339z"/>
					</g>
				</g>
			</g>
			<g>
				<g>
					<g>
						<path style="fill:#0F227A;" d="M1368.316,3137.085c-39.109,0-72.207-12.036-98.943-36.069
							c-29.98-26.953-45.427-60.757-45.911-100.474c-1.335-109.565,114.199-231.572,143.196-260.444l-2.7-45.493
							c-0.525-8.828,5.195-16.724,13.552-19.087c0.999-0.322,2-0.576,3.005-0.747c1.418-0.244,2.856-0.317,4.297-0.225
							c2.407,0.156,59.751,4.15,128.132,40.156c62.876,33.105,147.488,100.742,193.513,234.951c0.535,1.563,0.793,2.891,0.935,3.75
							c1.687,7.026-0.833,14.468-6.582,19.014c-91.443,72.31-171.606,121.348-238.267,145.747
							C1428.076,3130.781,1396.621,3137.085,1368.316,3137.085z M1402.6,2714.829l1.875,31.577
							c0.327,5.518-1.807,10.898-5.82,14.692c-1.392,1.318-139.153,132.803-137.817,239.028
							c0.366,29.233,11.333,53.145,33.525,73.096c66.653,59.917,192.097,18.877,372.966-122.041
							C1600.161,2769.448,1455.747,2725.142,1402.6,2714.829z M1706.922,2951.768c0,0,0,0.005,0.002,0.005
							C1706.922,2951.772,1706.922,2951.768,1706.922,2951.768z M1706.909,2951.738c0.002,0.005,0.005,0.01,0.007,0.015
							C1706.914,2951.748,1706.912,2951.743,1706.909,2951.738z M1382.612,2693.496h0.049H1382.612z"/>
					</g>
				</g>
			</g>
			<g>
				<g>
					<g>
						<path style="fill:#0F227A;" d="M2103.87,2282.793c-77.866,0.005-270.012-95.273-282.519-155.215
							c-6.255-29.976,0.444-47.354,5.334-60.049c4.563-11.836,6.45-16.733-2.192-29.131
							c-37.41-53.652-132.217-74.204-223.904-94.072c-22.021-4.775-44.792-9.712-66.082-15.005
							c-6.26-1.553-10.073-7.891-8.518-14.15c1.555-6.26,7.905-10.098,14.153-8.516c20.947,5.205,42.537,9.883,65.396,14.839
							c96.094,20.825,195.459,42.363,238.118,103.545c15.742,22.573,9.944,37.622,4.829,50.894
							c-4.48,11.621-9.114,23.643-4.268,46.87c9.387,44.985,206.67,145.581,267.121,136.133c27.19-4.209,35.623-14.79,45.386-27.046
							c10.857-13.628,23.162-29.072,57.93-31.279c53.503-3.516,137.397,45.791,140.942,47.891c5.552,3.281,7.39,10.444,4.109,15.996
							c-3.279,5.547-10.442,7.392-15.996,4.111c-0.806-0.474-81.218-47.651-127.576-44.688
							c-24.431,1.553-31.438,10.352-41.138,22.524c-10.639,13.354-23.882,29.976-60.083,35.576
							C2111.56,2282.539,2107.861,2282.793,2103.87,2282.793z"/>
					</g>
				</g>
			</g>
			<g style="opacity:0.6;enable-background:new    ;">
				<g>
					<g>
						<path style="fill-rule:evenodd;clip-rule:evenodd;fill:#FDFDFD;" d="M3004.26,1860.246c0,0-66.993-82.014-225.182-86.35
							l26.239-36.204C2805.317,1737.692,3013.889,1747.658,3004.26,1860.246z"/>
					</g>
				</g>
			</g>
			<g>
				<g style="opacity:0.2;enable-background:new    ;">
					<g>
						<g>
							<path style="fill:#0F227A;" d="M2841.995,1830.352c-12.198-5.391-26.017-2.744-35.193,5.803
								c-2.119,1.973-3.984,4.263-5.53,6.841c2.908,14.226,12.241,37.6,41.653,57.083c2.074-2.524,4.126-5.144,6.151-7.871
								c0,0,11.208,3.816,27.571,7.141c45.011,9.143,129.374,14.539,129.374-73.699
								C3006.021,1825.649,2991.918,1896.611,2841.995,1830.352z"/>
						</g>
					</g>
				</g>
			</g>
			<g>
				<g>
					<g>
						<path style="fill:#0F227A;" d="M2881.86,1746.399c17.803-4.263,35.04-2.944,51.787,0.947
							c16.656,4.189,32.833,11.182,48.279,21.106c7.731,4.946,15.116,11.042,21.899,18.345c6.683,7.351,12.775,16.145,16.698,26.45
							c4.01,10.232,5.564,21.807,4.489,32.644c-0.35,2.671-0.624,5.398-1.139,8l-1.947,7.617c-1.649,4.854-3.181,9.504-5.557,14.16
							c-4.463,9.243-10.859,18.069-18.774,25.239c-7.928,7.168-17.142,12.6-26.532,16.304c-18.907,7.449-38.015,8.706-55.826,6.99
							c-17.881-1.765-34.724-6.653-50.36-13.823c-15.507-7.346-30.245-16.753-41.794-30.381c-1.193-1.409-1.018-3.518,0.389-4.709
							c0.702-0.596,1.577-0.85,2.427-0.781l0.15,0.012c16.946,1.404,32.509,3.384,47.849,5.198
							c15.254,1.831,30.096,3.662,44.352,4.263c14.163,0.552,28.018,0.396,39.509-3.245c11.516-3.584,19.965-10.544,24.647-21.226
							c1.313-2.515,2.19-5.593,2.993-8.386l0.842-4.131c0.188-1.355,0.178-2.661,0.334-3.977c0.127-5.212-0.892-9.937-3.055-14.568
							c-4.348-9.194-13.433-18.313-24.663-26.384c-11.219-8.162-24.233-15.281-37.604-22.656
							c-13.314-7.637-26.963-15.759-40.619-26.902l-0.143-0.115c-1.467-1.199-1.686-3.357-0.49-4.824
							C2880.497,1746.96,2881.156,1746.567,2881.86,1746.399z"/>
					</g>
				</g>
			</g>
			<g style="opacity:0.2;enable-background:new    ;">
				<g>
					<g>
						<path style="fill-rule:evenodd;clip-rule:evenodd;fill:#0F227A;" d="M2869.002,1673.497
							c-72.997,32.022-147.662,81.664-207.764,111.252c-130.586,64.298-343.031,32.051-512.62-21.753
							c-230.602-73.156-408.66-83.322-544.885-58.691c114.205,231.087,350.843,390.266,625.189,390.266
							C2515.365,2094.571,2761.282,1921.255,2869.002,1673.497z"/>
					</g>
				</g>
			</g>
			<g>
				<g>
					<g>
						<path style="fill-rule:evenodd;clip-rule:evenodd;fill:#18DDE6;" d="M2695.041,1528.713
							c37.115-108.15,129.665-174.391,206.727-147.947c77.057,26.444,109.44,135.552,72.329,243.702
							c-37.111,108.15-129.665,174.391-206.722,147.947C2690.313,1745.971,2657.93,1636.863,2695.041,1528.713z"/>
					</g>
				</g>
			</g>
			<g style="opacity:0.2;enable-background:new    ;">
				<g>
					<g>
						<g>
							<path style="fill-rule:evenodd;clip-rule:evenodd;fill:#1D386A;" d="M2699.872,1512.59c-1.5,3.836-3.462,7.293-4.817,11.246
								c-37.111,108.15-4.789,217.235,72.273,243.679c77.058,26.444,169.626-39.75,206.741-147.901
								c10.101-29.448,14.591-58.827,14.89-86.728c-39.568,101.189-127.679,162.136-201.924,136.659
								C2730.96,1650.305,2699.068,1587.161,2699.872,1512.59z"/>
						</g>
					</g>
				</g>
				<g>
					<g>
						<g>
							<path style="fill:#0F227A;" d="M2802.678,1775.869c-12.354,0-24.482-1.982-36.162-5.991
								c-78.205-26.836-111.323-137.578-73.828-246.856c0.811-2.358,1.816-4.536,2.791-6.636c0.716-1.548,1.433-3.091,2.063-4.707
								l4.976-12.739l-0.146,13.677c-0.815,75.796,32.734,136.465,85.474,154.565c72.168,24.731,159.458-34.644,198.784-135.205
								l4.976-12.72l-0.146,13.652c-0.32,29.941-5.376,59.385-15.024,87.515c-18.118,52.793-49.831,97.412-89.302,125.645
								C2859.6,1765.762,2830.571,1775.869,2802.678,1775.869z M2697.52,1524.356c-0.034,0.098-0.068,0.19-0.1,0.288
								c-36.601,106.675-4.878,214.566,70.718,240.508c36.492,12.51,77.715,4.302,116.084-23.15
								c38.633-27.632,69.7-71.387,87.481-123.198c8.01-23.345,12.795-47.607,14.275-72.31
								c-42.498,95.288-128.189,149.99-199.753,125.415C2734.202,1654.058,2700.137,1596.807,2697.52,1524.356z"/>
						</g>
					</g>
				</g>
			</g>
			<g style="opacity:0.6;enable-background:new    ;">
				<g>
					<g>
						<path style="fill-rule:evenodd;clip-rule:evenodd;fill:#FDFDFD;" d="M2879.117,1370.604
							c-20.781-1.056-41.918,3.981-62.345,13.727c152.928,58.135,170.771,175.214,173.013,202.508
							c20.763-96.46-12.012-186.805-81.178-210.539C2898.974,1372.996,2889.092,1371.113,2879.117,1370.604z"/>
					</g>
				</g>
			</g>
			<g>
				<g>
					<g>
						<path style="fill:#0F227A;" d="M2802.027,1796.826c-13.777,0-27.439-2.178-40.718-6.733
							c-86.682-29.746-124.338-149.722-83.943-267.446l0,0c40.398-117.729,143.767-189.297,230.469-159.556
							c86.677,29.746,124.333,149.722,83.938,267.441C2957.566,1730.225,2878.179,1796.826,2802.027,1796.826z M2712.717,1534.776
							c-33.706,98.232-6.467,196.909,60.723,219.966c9.575,3.286,19.463,4.858,29.46,4.858
							c60.152,0.01,124.615-56.968,153.521-141.196c33.704-98.228,6.465-196.904-60.72-219.961
							C2828.508,1375.376,2746.428,1436.548,2712.717,1534.776L2712.717,1534.776z"/>
					</g>
				</g>
			</g>
			<g>
				<g>
					<g>
						<path style="fill-rule:evenodd;clip-rule:evenodd;fill:#E8C49C;" d="M1594.585,1343.137
							c0-351.759,300.571-636.917,671.341-636.917s671.341,285.158,671.341,636.917c0,351.754-300.571,636.912-671.341,636.912
							S1594.585,1694.891,1594.585,1343.137z"/>
					</g>
				</g>
			</g>
			<g style="opacity:0.6;enable-background:new    ;">
				<g>
					<g>
						<path style="fill-rule:evenodd;clip-rule:evenodd;fill:#FDFDFD;" d="M2267.832,706.206
							c-203.101,0-384.697,85.99-507.803,221.197c120.741-101.142,390.023-235.928,715.857-129.506
							c32.415,10.587,61.933,23.65,90.083,37.671c-5.336,12.732,17.558,40.171,53,62.779c33.728,21.515,66.535,30.845,77.674,22.926
							c182.656,155.904,233.479,374.928,242.511,421.803C2939.154,991.317,2638.601,706.206,2267.832,706.206z"/>
					</g>
				</g>
			</g>
			<g style="opacity:0.6;enable-background:new    ;">
				<g>
					<g>
						<g>
							<path style="fill-rule:evenodd;clip-rule:evenodd;fill:#FDFDFD;" d="M2265.86,692.143c-10.667,0-20.992,1.135-31.537,1.603
								c-1.289,13.04-2.191,26.215-2.191,39.568c0,3.99,0.467,7.863,0.584,11.825c75.543-0.14,156.362,10.984,241.198,38.694
								c32.415,10.587,61.933,23.65,90.083,37.667c-5.336,12.732,17.558,40.176,53,62.784c33.728,21.515,66.54,30.845,77.674,22.921
								c76.903,65.638,129.413,141.976,166.299,212.436c11.063-4.583,22.277-8.928,32.85-14.311
								c-5.948-15.016-12.339-29.78-19.417-44.24c-0.028-0.056-0.117-0.084-0.145-0.145c-0.07-0.135-0.08-0.299-0.149-0.439
								c-21.296-43.381-47.693-84.056-78.258-121.475c-9.433-11.549-19.403-22.823-29.635-33.723
								c-1.869-1.981-3.803-3.883-5.695-5.84c-10.115-10.508-20.422-20.819-31.247-30.663c-0.098-0.089-0.187-0.201-0.29-0.29
								c-0.612-0.556-1.285-1.051-1.897-1.607c-19.398-17.488-40.124-33.565-61.616-48.768c-5.476-3.859-10.746-7.971-16.353-11.68
								c-8.312-5.513-16.969-10.606-25.552-15.768c-7.653-4.583-15.353-9.134-23.211-13.432c-9.172-5.027-18.45-9.83-27.888-14.451
								c-8.157-3.985-16.479-7.718-24.823-11.391c-8.526-3.761-16.974-7.667-25.697-11.096c-16.922-6.63-34.097-12.633-51.683-17.96
								c-6.335-1.925-12.858-3.359-19.272-5.107c-13.283-3.612-26.687-7.088-40.297-9.928c-7.578-1.589-15.25-2.897-22.921-4.238
								c-12.745-2.219-25.561-4.163-38.545-5.691c-7.041-0.832-14.068-1.715-21.174-2.336
								C2307.587,693.279,2286.82,692.143,2265.86,692.143z"/>
						</g>
					</g>
				</g>
				<g>
					<g>
						<g>
							<path style="fill:#0F227A;" d="M2859.817,1122.827l-1.06-2.026c-43.816-83.696-99.106-154.521-164.348-210.527
								c-13.457,6.816-45.852-2.891-78.757-23.882c-34.815-22.212-57.483-48.838-54.644-63.584
								c-31.958-15.825-59.929-27.471-87.871-36.597c-78.811-25.742-159.795-38.638-240.415-38.574l-2.432,0.005l-0.073-2.432
								c-0.049-1.665-0.161-3.315-0.273-4.961c-0.159-2.3-0.313-4.595-0.313-6.934c0-11.948,0.7-24.6,2.204-39.814l0.212-2.158
								l2.166-0.098c3.882-0.171,7.732-0.435,11.582-0.698c25.132-1.714,51.997-0.635,82.476,2.026
								c5.935,0.518,11.814,1.216,17.69,1.919l3.56,0.425c12.236,1.435,24.89,3.306,38.682,5.713l2.024,0.352
								c6.897,1.201,14.028,2.441,20.981,3.901c14.402,3.003,28.525,6.719,40.442,9.961c2.476,0.674,4.969,1.304,7.458,1.929
								c3.987,1.006,7.971,2.012,11.885,3.198c17.17,5.2,34.621,11.265,51.867,18.022c6.755,2.656,13.43,5.635,19.885,8.511
								l5.906,2.627c7.976,3.511,16.516,7.329,24.912,11.431c9.583,4.697,19.001,9.575,27.993,14.507
								c7.986,4.365,15.916,9.063,23.294,13.482l3.962,2.378c7.18,4.302,14.604,8.75,21.687,13.447
								c3.479,2.305,6.831,4.761,10.183,7.217c2.065,1.514,4.131,3.027,6.228,4.502c23.599,16.699,43.828,32.71,61.851,48.96
								c0.283,0.259,0.574,0.493,0.862,0.728c0.354,0.288,0.706,0.576,1.042,0.884c9.8,8.94,19.766,18.721,31.656,31.069
								l2.295,2.344c1.148,1.162,2.292,2.324,3.418,3.516c10.727,11.426,20.737,22.813,29.753,33.857
								c31.094,38.066,57.527,79.097,78.564,121.953l0.286,0.566c6.726,13.74,13.106,28.271,19.507,44.443l0.837,2.114l-2.029,1.03
								c-8.672,4.414-17.871,8.179-26.77,11.821L2859.817,1122.827z M2694.81,904.038l1.484,1.269
								c65.796,56.152,121.582,127.188,165.833,211.157l4.163-1.709c8.105-3.32,16.462-6.738,24.36-10.63
								c-5.989-14.995-11.965-28.569-18.237-41.416l-0.042-0.029l-0.608-1.328c-20.769-42.261-46.994-82.969-77.847-120.737
								c-8.945-10.957-18.879-22.261-29.524-33.599c-1.094-1.157-2.214-2.295-3.335-3.428l-2.334-2.383
								c-11.814-12.275-21.704-21.978-31.133-30.552c-0.559-0.532-0.845-0.767-1.128-1.001c-0.359-0.293-0.718-0.586-1.06-0.898
								c-17.864-16.104-37.942-31.997-61.375-48.574c-2.119-1.489-4.209-3.022-6.301-4.556c-3.286-2.412-6.575-4.819-9.988-7.08
								c-6.99-4.634-14.365-9.058-21.497-13.33l-3.965-2.378c-7.332-4.394-15.21-9.058-23.12-13.384
								c-8.93-4.893-18.279-9.741-27.791-14.399c-8.315-4.063-16.802-7.856-24.731-11.348l-5.925-2.637
								c-6.404-2.856-13.028-5.806-19.678-8.418c-17.119-6.709-34.443-12.729-51.492-17.896c-3.838-1.167-7.744-2.148-11.653-3.135
								c-2.522-0.635-5.046-1.27-7.551-1.953c-11.843-3.223-25.876-6.914-40.151-9.893c-6.873-1.44-13.96-2.676-20.816-3.867
								l-2.026-0.357c-13.699-2.388-26.262-4.243-38.408-5.674l-3.565-0.42c-5.825-0.698-11.653-1.392-17.534-1.904
								c-30.149-2.632-56.575-3.73-81.699-2.017c-3.171,0.215-6.345,0.435-9.534,0.601c-1.345,14.097-1.972,25.962-1.972,37.178
								c0,2.222,0.151,4.409,0.3,6.592c0.061,0.908,0.125,1.816,0.176,2.729c80.457,0.112,161.047,13.169,239.583,38.818
								c28.723,9.38,57.456,21.396,90.42,37.808l2.097,1.04l-0.906,2.163c-4.214,10.064,14.482,35.752,52.041,59.707
								c35.378,22.568,65.857,29.404,74.878,22.998L2694.81,904.038z"/>
						</g>
					</g>
				</g>
			</g>
			<g>
				<g>
					<g>
						<g>
							<path style="fill-rule:evenodd;clip-rule:evenodd;fill:#EA5656;" d="M2267.776,706.22c-10.653,0-21.01,0.995-31.537,1.462
								c-1.299,13.082-2.191,26.309-2.191,39.713c0,233.367,200.887,422.532,448.668,422.532c77.081,0,149.657-18.263,213.02-50.515
								C2800.182,878.168,2555.452,706.22,2267.776,706.22z"/>
						</g>
					</g>
				</g>
				<g>
					<g>
						<g>
							<path style="fill:#0F227A;" d="M2682.715,1172.427c-248.775,0-451.167-190.669-451.167-425.029c0-12.1,0.7-24.8,2.202-39.961
								l0.212-2.158l2.166-0.098c3.655-0.156,7.288-0.386,10.92-0.61c6.741-0.415,13.711-0.85,20.728-0.85
								c139.731,0,273.699,40.303,387.419,116.553c111.121,74.507,195.1,177.632,242.864,298.218l0.837,2.119l-2.029,1.03
								C2831.597,1154.863,2757.544,1172.427,2682.715,1172.427z M2238.516,710.073c-1.34,14.058-1.968,25.967-1.968,37.324
								c0,231.607,200.149,420.029,446.167,420.029c73.267,0,145.776-17.012,209.851-49.214
								c-98.113-245.029-348.887-409.492-624.79-409.492c-6.863,0-13.752,0.43-20.417,0.84
								C2244.414,709.746,2241.472,709.927,2238.516,710.073z"/>
						</g>
					</g>
				</g>
			</g>
			<g style="opacity:0.2;enable-background:new    ;">
				<g>
					<g>
						<path style="fill-rule:evenodd;clip-rule:evenodd;fill:#0F227A;" d="M1634.102,1163.181
							c-19.707,59.962-30.369,123.834-30.369,189.949c0,351.759,300.552,636.87,671.327,636.87
							c278.248,0,516.951-160.571,618.761-389.393c-129.184,156.432-328.931,317.381-588.046,303.982
							c-447.294-23.127-672.985-346.516-672.985-716.296C1632.789,1179.8,1633.77,1171.6,1634.102,1163.181z"/>
					</g>
				</g>
			</g>
			<g>
				<g>
					<g>
						<path style="fill:#0F227A;" d="M2265.925,1998.735c-380.483,0-690.029-294.101-690.029-655.6s309.546-655.601,690.029-655.601
							s690.029,294.102,690.029,655.601S2646.409,1998.735,2265.925,1998.735z M2265.925,724.907
							c-359.873,0-652.651,277.339-652.651,618.228s292.778,618.228,652.651,618.228s652.652-277.339,652.652-618.228
							S2625.798,724.907,2265.925,724.907z"/>
					</g>
				</g>
			</g>
			<g>
				<g>
					<g>
						<path style="fill-rule:evenodd;clip-rule:evenodd;fill:#FFFFFF;" d="M1832.125,1283.184
							c45.791-233.022,305.033-403.166,566.592-348.722c261.559,54.444,479.074,284.27,428.498,538.265
							c-53.159,266.946-340.961,395.036-602.52,340.592C1963.135,1758.875,1786.338,1516.206,1832.125,1283.184z"/>
					</g>
				</g>
			</g>
			<g style="opacity:0.2;enable-background:new    ;">
				<g>
					<g>
						<g>
							<path style="fill-rule:evenodd;clip-rule:evenodd;fill:#1D386A;" d="M1876.145,1159.074
								c-22.421,38.409-38.662,80.131-47.305,124.105c-45.787,233.022,131.048,475.691,392.607,530.135
								c245.211,51.043,513.475-58.322,589.854-292.152c-104.366,180.652-338.696,261.05-555.397,215.94
								c-261.559-54.444-438.394-297.118-392.607-530.14C1866.511,1190.606,1870.903,1174.758,1876.145,1159.074z"/>
						</g>
					</g>
				</g>
				<g>
					<g>
						<g>
							<path style="fill:#0F227A;" d="M2342.168,1828.262c-40.383,0-81.052-4.136-121.231-12.5
								c-126.729-26.377-237.91-97.075-313.061-199.063c-74.897-101.646-103.838-220.264-81.489-334.004
								c8.521-43.354,24.536-85.371,47.6-124.883l12.197-20.899l-7.668,22.949c-5.581,16.704-9.756,32.271-12.766,47.583
								c-45.625,232.202,133.276,473.638,390.664,527.212c225.288,46.895,452.588-41.411,552.722-214.746l11.973-20.723
								l-7.431,22.749c-36.153,110.679-118.875,201.025-232.932,254.395C2507.324,1810.684,2425.388,1828.257,2342.168,1828.262z
								 M1866.665,1181.675c-16.604,32.69-28.476,66.899-35.371,101.987c-45.625,232.202,133.276,473.633,390.664,527.207
								c41.524,8.643,82.81,12.798,123.147,12.798c206.04,0.01,387.783-108.369,455.75-280.859
								c-106.76,161.626-327.085,242.207-545.461,196.743c-126.729-26.377-237.908-97.075-313.059-199.067
								c-74.9-101.646-103.84-220.264-81.492-334.004C1862.446,1198.32,1864.375,1190.098,1866.665,1181.675z"/>
						</g>
					</g>
				</g>
			</g>
			<g>
				<g>
					<g>
						<path style="fill:#0F227A;" d="M2343.767,1844.18c-41.074,0-82.356-4.126-122.881-12.563
							c-130.635-27.192-245.266-100.107-322.778-205.313c-77.61-105.342-107.556-228.477-84.321-346.724l0,0
							c22.219-113.076,95.129-217.847,200.032-287.441c114.39-75.889,256.069-103.584,388.706-75.972
							c133.357,27.759,257.935,100.859,341.795,200.566c90.12,107.148,126.069,234.873,101.223,359.639
							c-22.92,115.103-88.452,211.284-189.514,278.149C2567.552,1813.062,2456.511,1844.18,2343.767,1844.18z M1850.462,1286.787
							c-43.953,223.691,129.17,456.435,378.042,508.237c142.209,29.6,294.324,2.813,406.902-71.675
							c92.561-61.24,152.551-149.17,173.481-254.273c50.799-255.117-175.334-466.645-413.979-516.318
							c-122.927-25.596-254.297,0.117-360.425,70.522C1937.844,1087.397,1870.769,1183.443,1850.462,1286.787L1850.462,1286.787z"/>
					</g>
				</g>
			</g>
			<g>
				<g>
					<g>
						<path style="fill-rule:evenodd;clip-rule:evenodd;fill:#18DDE6;" d="M1537.698,1088.222
							c37.115-108.15,129.665-174.387,206.727-147.942c77.057,26.44,109.44,135.552,72.329,243.702
							c-37.115,108.15-129.665,174.387-206.727,147.947C1532.969,1305.484,1500.587,1196.376,1537.698,1088.222z"/>
					</g>
				</g>
			</g>
			<g style="opacity:0.6;enable-background:new    ;">
				<g>
					<g>
						<path style="fill-rule:evenodd;clip-rule:evenodd;fill:#FDFDFD;" d="M1714.976,940.7
							c-69.843-3.555-144.775,58.967-177.246,153.596c-4.639,13.521-8.144,27.056-10.662,40.442
							c38.475-104.436,128.698-167.841,204.26-141.915c67.288,23.09,100.441,109.183,83.075,202.653
							c0.687-1.874,1.687-3.5,2.336-5.401c37.115-108.15,4.789-217.235-72.268-243.679
							C1734.837,943.087,1724.956,941.209,1714.976,940.7z"/>
					</g>
				</g>
			</g>
			<g>
				<g>
					<g>
						<path style="fill-rule:evenodd;clip-rule:evenodd;fill:#FFFFFF;" d="M1539.758,1078.901
							c27.804-69.956,78.982-108.426,114.313-85.925c35.335,22.496,41.442,97.446,13.638,167.402
							c-27.799,69.956-78.982,108.431-114.313,85.93C1518.061,1223.806,1511.959,1148.856,1539.758,1078.901z"/>
					</g>
				</g>
			</g>
			<g style="opacity:0.2;enable-background:new    ;">
				<g>
					<g>
						<path style="fill-rule:evenodd;clip-rule:evenodd;fill:#0F227A;" d="M1548.957,1053.213
							c-5.546,11.134-10.676,22.744-14.895,35.041c-37.11,108.15-4.784,217.234,72.273,243.679
							c77.057,26.444,169.63-39.895,206.741-148.05c5.756-16.768,9.321-33.424,11.825-49.931
							c-43.25,86.831-123.549,136.444-191.846,113.004C1567.973,1224.624,1535.352,1143.1,1548.957,1053.213z"/>
					</g>
				</g>
			</g>
			<g>
				<g>
					<g>
						<path style="fill:#0F227A;" d="M1644.678,1356.338c-13.777,0-27.437-2.178-40.715-6.733
							c-86.682-29.746-124.336-149.722-83.94-267.446l0,0c19.202-55.952,53.003-103.394,95.183-133.579
							c44.094-31.558,92.141-40.786,135.286-25.977c43.142,14.805,75.398,51.582,90.828,103.569
							c14.758,49.722,12.312,107.92-6.89,163.872C1800.22,1289.731,1720.83,1356.338,1644.678,1356.338z M1555.374,1094.287
							c-33.706,98.232-6.467,196.909,60.72,219.966c9.575,3.286,19.46,4.858,29.458,4.858
							c60.151,0.01,124.619-56.968,153.525-141.196c16.697-48.662,18.975-98.774,6.409-141.108
							c-11.895-40.078-35.732-68.081-67.126-78.852c-31.406-10.776-67.41-3.306-101.401,21.02
							C1601.047,1004.673,1572.073,1045.625,1555.374,1094.287L1555.374,1094.287z"/>
					</g>
				</g>
			</g>
			<g>
				<g>
					<g>
						<path style="fill-rule:evenodd;clip-rule:evenodd;fill:#18DDE6;" d="M2267.776,706.22c-10.653,0-21.01,0.995-31.537,1.462
							c-1.299,13.082-2.191,26.309-2.191,39.713c0,149.026,81.926,280.032,205.667,355.253
							c70.03,42.572,153.456,67.278,243.001,67.278c77.081,0,149.657-18.263,213.02-50.515
							C2800.182,878.168,2555.452,706.22,2267.776,706.22z"/>
					</g>
				</g>
			</g>
			<g style="opacity:0.6;enable-background:new    ;">
				<g>
					<g>
						<path style="fill-rule:evenodd;clip-rule:evenodd;fill:#FDFDFD;" d="M2267.776,706.22c-10.671,0-20.997,1.14-31.537,1.607
							c-1.289,13.04-2.191,26.215-2.191,39.568c0,3.99,0.467,7.863,0.584,11.825c75.543-0.14,156.362,10.984,241.198,38.69
							c32.416,10.587,61.934,23.65,90.083,37.671c-5.335,12.731,17.558,40.171,53,62.779c33.728,21.515,66.536,30.845,77.674,22.926
							c76.903,65.638,129.413,141.976,166.299,212.432c11.064-4.583,22.277-8.924,32.85-14.306
							c-5.948-15.021-12.339-29.785-19.417-44.24c-0.028-0.056-0.117-0.089-0.149-0.145c-0.065-0.135-0.075-0.304-0.145-0.439
							c-21.3-43.38-47.698-84.056-78.258-121.475c-9.438-11.554-19.403-22.823-29.64-33.728c-1.864-1.981-3.803-3.878-5.691-5.84
							c-10.115-10.503-20.422-20.814-31.247-30.658c-0.098-0.094-0.187-0.201-0.29-0.294c-0.612-0.556-1.285-1.051-1.902-1.603
							c-19.398-17.488-40.119-33.565-61.611-48.768c-5.476-3.864-10.746-7.975-16.353-11.68
							c-8.312-5.513-16.969-10.606-25.552-15.768c-7.653-4.588-15.353-9.134-23.216-13.432c-9.167-5.032-18.446-9.83-27.883-14.455
							c-8.157-3.981-16.479-7.714-24.823-11.386c-8.527-3.766-16.974-7.667-25.697-11.096c-16.922-6.634-34.097-12.633-51.683-17.96
							c-6.335-1.925-12.858-3.359-19.273-5.111c-13.287-3.607-26.692-7.088-40.297-9.928c-7.578-1.584-15.25-2.892-22.926-4.233
							c-12.741-2.219-25.556-4.168-38.545-5.695c-7.036-0.827-14.063-1.715-21.169-2.336
							C2309.502,707.36,2288.735,706.22,2267.776,706.22z"/>
					</g>
				</g>
			</g>
			<g>
				<g>
					<g>
						<path style="fill:#0F227A;" d="M1575.33,1271.45c-11.367,0-22.183-3.145-31.973-9.38
							c-43.184-27.495-52.393-110.986-20.967-190.068c0-0.005,0-0.005,0-0.005c20.576-51.768,53.679-89.404,88.552-100.679
							c19.053-6.172,37.437-4.126,53.167,5.894c43.188,27.495,52.397,110.986,20.964,190.068
							c-20.569,51.767-53.672,89.409-88.547,100.684C1589.329,1270.293,1582.229,1271.45,1575.33,1271.45z M1557.127,1085.801
							c-26.301,66.187-17.786,129.404,6.309,144.746c6.187,3.936,13.252,4.541,21.589,1.855
							c23.667-7.656,49.304-38.633,65.315-78.926c26.306-66.182,17.788-129.394-6.306-144.741
							c-6.196-3.94-13.259-4.556-21.592-1.855c-23.665,7.651-49.302,38.633-65.315,78.926V1085.801z"/>
					</g>
				</g>
			</g>
			<g>
				<g>
					<g>
						<path style="fill:#0F227A;" d="M2682.715,1188.613c-257.7,0-467.356-197.93-467.356-441.216
							c0-12.646,0.725-25.85,2.281-41.558c0.918-9.248,8.491-16.421,17.776-16.831c3.557-0.156,7.095-0.376,10.633-0.596
							c6.985-0.435,14.211-0.879,21.728-0.879c142.952,0,280.037,41.25,396.433,119.292
							c113.857,76.343,199.924,182.056,248.902,305.708c3.552,8.965-0.303,19.16-8.899,23.535
							C2836.675,1170.444,2760.083,1188.613,2682.715,1188.613z M2253.506,725.405c-0.52,7.842-0.769,15.039-0.769,21.992
							c0,222.681,192.888,403.843,429.978,403.843c65.63,0,130.61-14.126,189.023-40.972
							c-99.48-231.211-339.895-385.361-603.962-385.361C2263.062,724.907,2258.357,725.127,2253.506,725.405z"/>
					</g>
				</g>
			</g>
			<g>
				<g>
					<g>
						<g>
							<path style="fill-rule:evenodd;clip-rule:evenodd;fill:#0F227A;" d="M2211.595,1235.136
								c14.456-44.633,50.494-72.941,80.504-63.226c30.01,9.721,42.614,53.779,28.158,98.417
								c-14.455,44.638-50.5,72.947-80.504,63.226C2209.743,1323.838,2197.139,1279.774,2211.595,1235.136z"/>
						</g>
					</g>
				</g>
				<g>
					<g>
						<g>
							<path style="fill-rule:evenodd;clip-rule:evenodd;fill:#FDFEFD;" d="M2262.867,1229.417
								c4.682-14.457,16.356-23.627,26.071-20.475c9.72,3.145,13.804,17.415,9.122,31.872
								c-4.682,14.463-16.356,23.627-26.077,20.482C2262.269,1258.15,2258.185,1243.875,2262.867,1229.417z"/>
						</g>
					</g>
				</g>
			</g>
			<g>
				<g>
					<g>
						<g>
							<path style="fill-rule:evenodd;clip-rule:evenodd;fill:#0F227A;" d="M2275.891,1388.288
								c44.315-21.711,227.705,47.216,241.329,99.516c13.624,52.304-86.593,171.625-217.921,121.741
								C2184.126,1565.8,2215.392,1417.928,2275.891,1388.288z"/>
						</g>
					</g>
				</g>
				<g>
					<g>
						<g>
							<g>
								<path style="fill-rule:evenodd;clip-rule:evenodd;fill:#D7557A;" d="M2248.092,1444.409c-5.892,0-11.526,1.126-17.231,1.897
									c-20.338,56.14-10.648,133.604,67.746,163.379c32.163,12.218,62.433,14.1,89.648,9.489
									c0.579-5.784,1.603-11.414,1.603-17.371C2389.858,1514.86,2326.392,1444.409,2248.092,1444.409z"/>
							</g>
						</g>
					</g>
					<g>
						<g>
							<g>
								<path style="fill:#0F227A;" d="M2360.865,1623.984c-21.04,0-42.18-3.994-63.147-11.958
									c-78.244-29.722-90.723-107.178-69.206-166.567l0.515-1.426l1.502-0.2c1.35-0.186,2.698-0.386,4.045-0.591
									c4.35-0.654,8.85-1.333,13.521-1.333c79.548,0,144.265,71.729,144.265,159.892c0,4.312-0.515,8.452-1.015,12.461
									c-0.212,1.714-0.427,3.433-0.601,5.161l-0.19,1.899l-1.88,0.318C2379.441,1623.203,2370.161,1623.984,2360.865,1623.984z
									 M2232.708,1448.574c-20.005,56.968-7.678,130.493,66.787,158.774c28.762,10.928,57.849,14.16,86.479,9.668
									c0.127-1.128,0.269-2.251,0.408-3.374c0.503-4.033,0.977-7.842,0.977-11.841c0-85.41-62.473-154.892-139.265-154.892
									c-4.297,0-8.416,0.62-12.776,1.279C2234.448,1448.316,2233.579,1448.447,2232.708,1448.574z"/>
							</g>
						</g>
					</g>
				</g>
				<g>
					<g>
						<g>
							<path style="fill:#0F227A;" d="M2361.833,1639.946c-22.976,0-46.328-4.253-69.17-12.93
								c-54.211-20.591-86.831-65.376-89.495-122.881c-2.61-56.313,25.12-113.335,64.5-132.632l0,0
								c39.133-19.16,129.016,12.271,171.079,31.572c39.231,18.003,87.827,46.499,96.558,80.015
								c8.159,31.323-11.509,74.932-48.94,108.516C2450.918,1623.413,2407.115,1639.946,2361.833,1639.946z M2284.114,1405.068
								c-25.945,12.71-45.506,56.377-43.608,97.339c1.143,24.639,11.159,69.057,65.43,89.668
								c78.598,29.849,134.907-9.839,155.469-28.286c28.562-25.63,41.614-56.367,37.729-71.274
								c-2.935-11.269-27.961-33.432-75.974-55.464C2360.986,1408.516,2299.981,1397.29,2284.114,1405.068L2284.114,1405.068z"/>
						</g>
					</g>
				</g>
			</g>
			<g>
				<g>
					<g>
						<path style="fill:#0F227A;" d="M2085.244,1491.147c-0.129,0-0.261,0-0.391,0c-5.271-0.112-129.714-2.964-186.577-30.015
							c-107.446-51.108-185.078-249.063-188.33-257.461c-3.723-9.624,1.057-20.444,10.679-24.175
							c9.636-3.711,20.449,1.055,24.177,10.679c0.745,1.919,75.5,192.48,169.529,237.207
							c49.624,23.604,170.08,26.367,171.292,26.392c10.317,0.215,18.51,8.755,18.298,19.072
							C2103.708,1483.032,2095.386,1491.147,2085.244,1491.147z"/>
					</g>
				</g>
			</g>
			<g>
				<g>
					<g>
						<g>
							<path style="fill-rule:evenodd;clip-rule:evenodd;fill:#ECB35B;" d="M2089.292,1413.256l91.018,10.377
								c33.251,3.789,57.135,33.817,53.342,67.073l0,0c-3.789,33.251-33.817,57.135-67.073,53.342l-91.013-10.372
								c-33.251-3.794-57.135-33.822-53.346-67.073l0,0C2026.013,1433.346,2056.04,1409.467,2089.292,1413.256z"/>
						</g>
					</g>
				</g>
				<g>
					<g>
						<g>
							<path style="fill:#0F227A;" d="M2173.569,1546.948c-2.415,0-4.841-0.137-7.275-0.415l-91.013-10.371
								c-34.568-3.945-59.485-35.278-55.545-69.844c3.943-34.57,35.264-59.448,69.839-55.547l91.018,10.376
								c16.746,1.909,31.743,10.225,42.234,23.418c10.491,13.188,15.217,29.678,13.305,46.421
								c-1.906,16.748-10.222,31.748-23.413,42.236C2201.448,1542.193,2187.764,1546.948,2173.569,1546.948z M2082.388,1415.361
								c-29.116,0-54.307,21.919-57.685,51.523c-3.625,31.826,19.316,60.679,51.145,64.307l91.013,10.371
								c15.429,1.777,30.6-2.593,42.746-12.251s19.802-23.472,21.56-38.892c1.758-15.42-2.593-30.601-12.253-42.744
								c-9.658-12.144-23.469-19.8-38.887-21.558l-91.018-10.376C2086.787,1415.488,2084.575,1415.361,2082.388,1415.361z"/>
						</g>
					</g>
				</g>
			</g>
			<g>
				<g>
					<g>
						<path style="fill-rule:evenodd;clip-rule:evenodd;fill:#18DDE6;" d="M2089.292,1413.256l91.018,10.377
							c33.251,3.789,57.135,33.817,53.342,67.073l0,0c-3.789,33.251-33.817,57.135-67.073,53.342l-91.013-10.372
							c-33.251-3.794-57.135-33.822-53.346-67.073l0,0C2026.013,1433.346,2056.04,1409.467,2089.292,1413.256z"/>
					</g>
				</g>
			</g>
			<g style="opacity:0.6;enable-background:new    ;">
				<g>
					<g>
						<path style="fill-rule:evenodd;clip-rule:evenodd;fill:#FDFDFD;" d="M2079.308,1413.102
							c-28.075,2.486-51.431,24.342-54.748,53.435c-0.21,1.831,0.042,3.598,0,5.406c12.47-16.74,32.518-27.355,54.748-24.823
							l90.961,10.367c31.42,3.583,54.047,30.738,53.29,61.761c6.181-8.298,11.157-17.6,12.414-28.617
							c3.789-33.251-20.039-63.228-53.295-67.017l-91.106-10.367C2087.418,1412.775,2083.321,1412.746,2079.308,1413.102z"/>
					</g>
				</g>
			</g>
			<g style="opacity:0.2;enable-background:new    ;">
				<g>
					<g>
						<path style="fill-rule:evenodd;clip-rule:evenodd;fill:#0F227A;" d="M2035.432,1434.692
							c-7.639,8.891-13.61,19.305-15.035,31.831c-3.794,33.252,20.039,63.373,53.29,67.162l90.961,10.367
							c33.252,3.789,63.368-20.188,67.162-53.439c1.126-9.9-0.794-19.165-4.088-27.888c-8.012,25.015-31.751,42.217-58.84,39.129
							l-84.392-9.634C2055.274,1488.888,2034.619,1463.556,2035.432,1434.692z"/>
					</g>
				</g>
			</g>
			<g>
				<g>
					<g>
						<path style="fill:#0F227A;" d="M2173.601,1563.14c-3.032,0-6.084-0.176-9.143-0.522l-91.01-10.371
							c-43.435-4.956-74.746-44.326-69.797-87.759c4.956-43.438,44.294-74.78,87.759-69.8l0,0l91.018,10.376
							c21.04,2.397,39.888,12.847,53.071,29.424c13.183,16.577,19.121,37.29,16.719,58.335
							c-2.397,21.04-12.844,39.888-29.419,53.071C2208.631,1557.163,2191.438,1563.14,2173.601,1563.14z M2082.4,1431.553
							c-21.003,0-39.177,15.811-41.614,37.168c-2.615,22.959,13.935,43.77,36.897,46.387l91.011,10.371
							c11.108,1.279,22.075-1.87,30.837-8.838c8.76-6.968,14.282-16.929,15.549-28.052c1.269-11.128-1.868-22.075-8.836-30.835
							c-6.968-8.765-16.931-14.287-28.052-15.552l-91.018-10.376C2085.574,1431.641,2083.977,1431.553,2082.4,1431.553z"/>
					</g>
				</g>
			</g>
			<g style="opacity:0.2;enable-background:new    ;">
				<g>
					<g>
						<path style="fill-rule:evenodd;clip-rule:evenodd;fill:#0F227A;" d="M3068.955,1892.208
							c-11.423,9.209-369.611,312.681-665.561,300.468l-73.656,104.253C2689.64,2282.708,2978.189,2071.972,3068.955,1892.208z"/>
					</g>
				</g>
			</g>
			<g>
				<g>
					<g>
						<path style="fill-rule:evenodd;clip-rule:evenodd;fill:#E8C49C;" d="M1450.39,2167.783c0,0-113.528-10.512-155.661,98.063
							c-42.138,108.58,35.387,173.48,35.387,173.48s-91.265,240.707,47.534,305.229c138.799,64.522,481.232-360.767,314.316-510.433
							"/>
					</g>
				</g>
			</g>
			<g style="opacity:0.2;enable-background:new    ;">
				<g>
					<g>
						<g>
							<path style="fill-rule:evenodd;clip-rule:evenodd;fill:#1D386A;" d="M1717.102,2264.641
								c10.274,74.118-162.562,388.757-294.053,370.994c-148.255-20.025-30.074-310.841-30.074-310.841l-63.807,117.971
								c-3.728,10.036-87.312,238.67,48.473,301.791C1507.927,2805.12,1817.632,2434.168,1717.102,2264.641z"/>
						</g>
					</g>
				</g>
				<g>
					<g>
						<g>
							<path style="fill:#0F227A;" d="M1408.765,2753.467c-11.758,0-22.561-2.173-32.18-6.646
								c-137.422-63.882-53.403-295.117-49.761-304.927l63.95-118.291l4.517,2.134c-0.767,1.885-76.06,189.487-28.806,271.006
								c11.987,20.684,31.13,32.935,56.899,36.416c36.98,4.971,81.406-17.339,128.489-64.585
								c89.207-89.517,169.89-252.095,162.754-303.594l-1.704-12.295l6.331,10.679c59.15,99.751-19.924,262.383-118.43,371.279
								C1532.442,2710.235,1461.184,2753.467,1408.765,2753.467z M1378.745,2356.357l-47.378,87.598
								c-3.435,9.316-85.957,236.377,47.327,298.335c9.067,4.214,19.285,6.265,30.405,6.265
								c50.769,0.01,120.571-42.71,188.018-117.266c97.144-107.393,168.369-261.733,122.817-356.084
								c-3.11,61.602-79.98,212.065-164.519,296.895c-48.228,48.394-94.114,71.226-132.7,66.011
								c-27.38-3.696-47.756-16.772-60.559-38.862C1325.374,2535.786,1358.999,2414.551,1378.745,2356.357z"/>
						</g>
					</g>
				</g>
			</g>
			<g style="opacity:0.2;enable-background:new    ;">
				<g>
					<g>
						<path style="fill-rule:evenodd;clip-rule:evenodd;fill:#0F227A;" d="M1747.826,2327.565
							c-20.45,84.888-20.45,115.055-76.034,206.241c-99.918,163.912-245.865,113.322-287.223,44.735l9.344,158.562
							c0,0-47.221,45.777-87.602,105.851c2.616-0.309,4.733-0.967,7.447-0.729
							C1685.145,2874.464,1747.826,2327.565,1747.826,2327.565z"/>
					</g>
				</g>
			</g>
			<g style="opacity:0.2;enable-background:new    ;">
				<g>
					<g>
						<path style="fill-rule:evenodd;clip-rule:evenodd;fill:#0F227A;" d="M1320.295,2227.208c0,0-25.052,94.358,79.328,89.35
							c0,0-73.483,102.711-83.505,163.669l-3.341-61.793C1312.777,2418.433,1243.467,2329.92,1320.295,2227.208z"/>
					</g>
				</g>
			</g>
			<g>
				<g>
					<g>
						<path style="fill:#0F227A;" d="M1448.666,2186.392c-0.892-0.068-2.983-0.164-4.59-0.176c-1.719-0.032-3.491-0.02-5.264,0.032
							c-3.548,0.076-7.142,0.317-10.723,0.654c-7.168,0.696-14.312,1.848-21.304,3.479c-13.97,3.293-27.412,8.362-39.478,15.498
							c-24.319,14.065-42.717,36.414-53.613,63.096c-11.386,26.958-15.428,56.172-10.62,83.794
							c2.379,13.843,7.439,27.158,14.131,39.6c3.352,6.23,7.296,12.148,11.52,17.813c2.215,2.737,4.37,5.544,6.736,8.069
							c1.143,1.34,2.331,2.532,3.512,3.73c0.594,0.623,1.177,1.206,1.735,1.709l1.403,1.309l0.587,0.547
							c5.748,5.359,7.418,13.459,4.891,20.408c-3.368,9.229-6.653,19.644-9.517,29.683c-2.913,10.144-5.498,20.396-7.795,30.686
							c-4.666,20.576-7.932,41.379-9.738,62.109c-1.666,20.715-1.588,41.389,0.972,61.331c2.861,19.792,8.182,38.958,17.553,55.215
							c9.449,16.133,22.314,29.702,38.819,38.555l6.194,3.296c1.068,0.63,2.025,1.038,2.914,1.345l2.737,1.111
							c1.863,0.669,3.843,1.099,5.75,1.707c2.043,0.291,4.016,0.779,6.097,1.011c8.32,0.952,17.354,0.261,26.509-1.67
							c18.39-3.845,36.978-12.424,54.491-22.891c17.58-10.535,34.321-23.098,50.295-36.677
							c31.826-27.427,60.242-59.221,85.958-92.842c25.398-33.887,48.248-69.753,66.672-107.573
							c9.114-18.916,17.375-38.252,23.55-58.101c3.331-9.871,5.897-19.89,8.2-29.956c2.139-10.085,3.687-20.225,4.781-30.391
							c1.706-20.281,0.95-40.793-4.637-60.144c-5.109-19.539-15.594-37.407-29.588-52.996l-0.093-0.103
							c-2.307-2.571-2.094-6.523,0.475-8.831c2.261-2.029,5.596-2.104,7.936-0.342c18.285,13.76,33.35,32.937,42.326,54.822
							c4.47,10.911,7.871,22.324,9.853,33.911c1.989,11.584,2.843,23.301,2.903,34.956c-0.012,23.32-3.73,46.252-9.199,68.459
							c-5.674,22.195-13.445,43.623-22.402,64.438c-18.336,41.438-41.818,80.186-69.186,115.862
							c-27.214,35.808-58.221,68.696-92.909,97.915c-17.413,14.543-35.804,28.154-55.797,39.912
							c-20.054,11.577-41.496,21.953-65.946,27.148c-12.18,2.551-25.177,3.743-38.577,2.209c-3.337-0.378-6.706-1.104-10.046-1.694
							c-3.323-0.933-6.677-1.758-9.945-2.93l-4.861-1.938c-1.674-0.642-3.214-1.328-4.514-2.073l-8.27-4.38
							c-22.087-11.858-40.52-31.016-52.93-52.561c-12.443-21.692-18.792-45.469-22.153-68.767
							c-3.013-23.389-3.011-46.616-1.184-69.407c1.977-22.771,5.53-45.203,10.515-67.212c2.46-11.018,5.219-21.946,8.33-32.788
							c3.144-10.95,6.388-21.384,10.508-32.666l5.477,20.952c-1.326-1.128-2.144-1.921-3.04-2.761
							c-0.925-0.85-1.765-1.687-2.562-2.512c-1.641-1.66-3.277-3.328-4.754-5.037c-3.116-3.357-5.883-6.904-8.703-10.43
							c-5.398-7.197-10.372-14.695-14.646-22.61c-8.532-15.798-14.993-32.942-18.105-50.811c-0.951-4.424-1.194-8.962-1.795-13.442
							c-0.229-2.249-0.565-4.495-0.692-6.746l-0.078-6.76c0.057-4.5-0.288-9.045,0.156-13.503l1.355-13.376
							c0.271-4.507,1.498-8.774,2.348-13.14c0.982-4.324,1.752-8.735,2.949-12.976l4.113-12.529c1.39-4.172,2.67-8.367,4.529-12.422
							c6.849-16.328,15.85-32.183,27.695-46.006c11.661-13.933,25.892-25.828,41.528-34.968
							c15.627-9.219,32.616-15.583,49.898-19.648c8.657-2.017,17.41-3.43,26.235-4.282c4.417-0.417,8.845-0.713,13.329-0.813
							c2.242-0.061,4.489-0.078,6.786-0.039c2.409,0.044,4.336,0.085,7.448,0.332c10.287,0.815,17.966,9.817,17.151,20.105
							c-0.816,10.288-9.818,17.966-20.106,17.151L1448.666,2186.392z"/>
					</g>
				</g>
			</g>
			<g>
				<g>
					<g>
						<path style="fill-rule:evenodd;clip-rule:evenodd;fill:#18DDE6;" d="M1390.619,2377.505
							c-21.169,0.86-34.162,3.359-34.162,3.359c-16.446,10.806-30.672,24.832-42.927,40.736
							c8.653,11.148,15.768,17.665,15.768,17.665s-91.2,240.773,47.6,305.294c77.987,36.251,220.239-82.201,300.328-219.444
							C1591.366,2387.111,1454.015,2374.926,1390.619,2377.505z"/>
					</g>
				</g>
			</g>
			<g style="opacity:0.2;enable-background:new    ;">
				<g>
					<g>
						<path style="fill-rule:evenodd;clip-rule:evenodd;fill:#0F227A;" d="M1374.089,2380.687c-4.14,0.495-9.746,0.893-11.386,1.168
							l-33.873,62.49c-1.869,5.018-23.79,64.807-28.182,131.109c-4.387,66.302,8.76,139.117,76.655,170.677
							c3.555,1.654,7.284,2.92,11.096,3.943c0.551,0.149,1.047,0.449,1.602,0.584c0.094,0.023,0.206-0.019,0.294,0
							c2.327,0.556,4.742,0.836,7.153,1.168c2.598,0.336,5.195,0.64,7.886,0.729c7.793,0.322,16.067-0.677,24.529-2.336
							c2.939-0.594,5.901-1.369,8.905-2.187c3.957-1.056,8.055-2.658,12.12-4.088c9.961-3.569,20.104-7.938,30.514-13.582
							c1.948-1.047,3.878-2.098,5.84-3.21c12.717-7.293,25.743-15.666,38.69-25.552c55.323-42.236,110.776-106.291,150.82-174.91
							c-13.638-21.926-28.794-39.61-44.53-55.631c-59.476,91.854-139.939,175.555-209.516,166.154
							C1314.828,2622.642,1348.01,2465.635,1374.089,2380.687z"/>
					</g>
				</g>
			</g>
			<g style="opacity:0.6;enable-background:new    ;">
				<g>
					<g>
						<path style="fill-rule:evenodd;clip-rule:evenodd;fill:#FDFDFD;" d="M1350.701,2396.011c0,0,171.625,3.284,253.032,93.391
							c31.616,34.994,38.274,72.446,23.547,107.36l48.548-63.826C1675.828,2532.937,1546.416,2327.565,1350.701,2396.011z"/>
					</g>
				</g>
			</g>
			<g>
				<g>
					<g>
						<path style="fill:#0F227A;" d="M1312.477,2432.822c2.175-7.954,4.844-14.973,7.969-22.107c1.497-3.56,3.12-7.056,4.871-10.488
							c1.68-3.469,3.425-6.907,5.346-10.254c7.308-13.584,16.137-26.36,25.46-38.755c9.43-12.341,19.629-24.16,30.793-35.071
							c11.376-10.728,23.604-20.72,37.239-28.279c1.321-0.732,2.985-0.256,3.718,1.064c0.516,0.933,0.431,2.034-0.128,2.859
							l-0.049,0.071c-8.523,12.551-16.111,25.051-23.142,37.869c-7.014,12.834-13.395,25.928-19.661,39.026
							c-6.218,13.149-11.802,26.584-18.104,39.614c-6.165,13-12.507,26.375-19.653,38.44l-0.331,0.559
							c-5.295,8.938-16.833,11.892-25.771,6.597C1313.585,2449.556,1310.302,2440.789,1312.477,2432.822z"/>
					</g>
				</g>
			</g>
			<g>
				<g>
					<g>
						<path style="fill:#0F227A;" d="M1408.018,2769.722c-13.87,0-26.96-2.617-38.999-8.213
							c-136.174-63.306-78.21-266.65-61.177-317.563c-2.666-2.974-5.767-6.621-9.075-10.884c-5.22-6.724-5.234-16.123-0.042-22.866
							c14.25-18.496,30.222-33.618,47.471-44.951c2.043-1.343,4.329-2.271,6.731-2.729c0.586-0.117,14.624-2.778,36.936-3.682
							c60.349-2.485,210.818,7.866,303.232,156.411c3.66,5.884,3.765,13.311,0.271,19.292
							C1620.791,2658.906,1498.193,2769.712,1408.018,2769.722z M1337.957,2421.475c2.441,2.593,3.97,4.019,4.001,4.048
							c5.586,5.171,7.512,13.247,4.814,20.366c-0.842,2.236-83.406,225.288,38.003,281.723
							c60.239,28.013,189.622-69.458,270.461-202.109c-79.238-118.354-198.701-131.972-263.857-129.326c0,0,0,0-0.002,0
							c-13.145,0.537-22.922,1.748-27.847,2.471C1354.595,2404.902,1346.038,2412.544,1337.957,2421.475z M1390.62,2377.505h0.049
							H1390.62z"/>
					</g>
				</g>
			</g>
			<g>
				<g>
					<g>
						<path style="fill-rule:evenodd;clip-rule:evenodd;fill:#FFFFFF;" d="M1649.221,2064.31c0,0,80.314-67.942,13.325-160.837
							c-82.565-114.49-333.336-33.854-332.738,129.786c0.603,166.407,179.404,146.84,198.523,147.606
							C1563.375,2182.271,1647.03,2155.318,1649.221,2064.31z"/>
					</g>
				</g>
			</g>
			<g>
				<g>
					<g>
						<path style="fill:#0F227A;" d="M1630.527,2063.755l-1.349-10.483c-0.449-3.713-1.171-7.388-1.75-11.05
							c-1.436-7.273-3.141-14.343-5.405-21.006c-4.684-13.245-11.043-24.941-21.408-33.398c-5.198-4.143-11.183-7.813-18.014-10.51
							c-6.926-2.366-14.365-4.629-22.316-5.574c-15.866-2.498-32.961-1.799-50.381-0.647l-0.045,0.002
							c-1.499,0.1-2.795-1.035-2.894-2.534c-0.074-1.121,0.542-2.126,1.481-2.605c15.866-8.066,33.074-14.204,51.875-16.479
							c4.706-0.479,9.463-0.935,14.349-0.818c4.863-0.227,9.816,0.471,14.789,1.008c9.917,1.643,20.107,4.634,29.454,9.863
							c9.354,5.146,17.993,12.092,24.9,20.303c6.995,8.169,12.219,17.471,16.099,26.965c3.884,9.512,6.399,19.309,7.722,29.109
							c0.674,4.897,1.019,9.814,1.117,14.736c0.041,2.466-0.044,4.937-0.151,7.429c-0.144,2.632-0.328,4.724-0.769,8.022
							c-1.367,10.22-10.759,17.395-20.977,16.028c-8.561-1.145-14.986-7.922-16.041-16.101L1630.527,2063.755z"/>
					</g>
				</g>
			</g>
			<g>
				<g>
					<g>
						<path style="fill:#0F227A;" d="M1505.381,2199.912c-36.372,0-104.431-4.854-149.836-48.867
							c-29.299-28.403-44.246-68.008-44.426-117.72c-0.308-84.36,60.764-158.784,155.591-189.6
							c86.514-28.12,169.333-8.96,210.996,48.813c57.161,79.273,21.172,149.331-10.2,180.342
							c-2.61,34.78-16.545,64.868-40.583,87.412c-30.537,28.642-71.921,40.312-99.341,39.243c-1.301-0.044-3.455,0.039-6.343,0.112
							C1517.112,2199.766,1511.726,2199.912,1505.381,2199.912z M1544.126,1868.291c-20.84,0-43.125,3.589-65.864,10.981
							c-60.051,19.517-130.068,71.538-129.766,153.916c0.142,39.263,11.267,69.888,33.064,91.02
							c42.019,40.732,114.749,38.75,138.652,38.076c4.038-0.103,7.068-0.166,8.867-0.093c15.891,0.625,48.218-6.606,72.275-29.165
							c18.682-17.515,28.499-40.786,29.182-69.165c0.129-5.317,2.515-10.322,6.558-13.769c6.868-5.923,65.078-59.717,10.293-135.689
							C1625.689,1884.312,1588.135,1868.291,1544.126,1868.291z"/>
					</g>
				</g>
			</g>
			<g style="opacity:0.2;enable-background:new    ;">
				<g>
					<g>
						<path style="fill-rule:evenodd;clip-rule:evenodd;fill:#0F227A;" d="M1664.793,1904.589c0,0,12.432,85.411-53.874,61.471
							c0,0,0.813,150.176-122.643,149.213c-104.319-0.813-146.298-55.776-157.394-73.586
							c9.115,153.24,179.054,135.183,197.691,135.93c35.046,1.402,118.7-25.505,120.891-116.513c0,0,77.272-65.783,16.352-156.221
							L1664.793,1904.589z"/>
					</g>
				</g>
			</g>
			<g style="opacity:0.2;enable-background:new    ;">
				<g>
					<g>
						<g>
							<path style="fill-rule:evenodd;clip-rule:evenodd;fill:#1D386A;" d="M2236.365,706.22c0,0,93.372,546.511,647.747,378.039
								l9.101,34.321c0,0-88.569,62.354-227.252,51.347C2477.381,1154.963,2224.279,1033.553,2236.365,706.22z"/>
						</g>
					</g>
				</g>
				<g>
					<g>
						<g>
							<path style="fill:#0F227A;" d="M2698.318,1173.711c-10.525,0.005-21.377-0.405-32.554-1.294
								c-109.915-8.721-216.155-50.747-291.479-115.308c-98.653-84.551-145.896-202.637-140.418-350.982l0.891-24.131l4.07,23.804
								c0.403,2.344,42.251,236.006,223.887,348.159c112.158,69.263,253.696,78.648,420.669,27.905l2.481-0.752l10.212,38.506
								l-1.426,1.006C2893.831,1121.201,2817.737,1173.711,2698.318,1173.711z M2238.45,727.28
								c-0.647,299.263,227.942,424.302,427.71,440.156c126.657,10.039,212.207-42.153,224.177-49.946l-7.979-30.093
								c-167.354,50.357-309.419,40.518-422.305-29.204C2308.491,964.585,2253.311,787.51,2238.45,727.28z"/>
						</g>
					</g>
				</g>
			</g>
			<g style="opacity:0.6;enable-background:new    ;">
				<g>
					<g>
						<g>
							<path style="fill-rule:evenodd;clip-rule:evenodd;fill:#FDFDFD;" d="M1573.117,3247.546"/>
						</g>
					</g>
				</g>
				<g>
					<g>
						<g>
							<path style="fill:none;stroke:#0F227A;stroke-width:5;stroke-miterlimit:10;" d="M1573.117,3247.546"/>
						</g>
					</g>
				</g>
			</g>
			<g>
				<g>
					<g>
						<g>
							<path style="fill-rule:evenodd;clip-rule:evenodd;fill:#0F227A;" d="M2561.595,1355.136
								c14.456-44.633,50.494-72.941,80.504-63.226c30.01,9.721,42.614,53.779,28.158,98.417
								c-14.455,44.638-50.5,72.947-80.504,63.226C2559.743,1443.838,2547.139,1399.774,2561.595,1355.136z"/>
						</g>
					</g>
				</g>
				<g>
					<g>
						<g>
							<path style="fill-rule:evenodd;clip-rule:evenodd;fill:#FDFEFD;" d="M2612.867,1349.417
								c4.682-14.457,16.356-23.627,26.071-20.475c9.72,3.145,13.804,17.415,9.122,31.872
								c-4.682,14.463-16.356,23.627-26.077,20.482C2612.269,1378.15,2608.185,1363.875,2612.867,1349.417z"/>
						</g>
					</g>
				</g>
			</g>
			<g>
				<g>
					<g>
						<path style="fill:#0F227A;" d="M2891.262,2078.228c-60.229,0-110.456-17.055-149.697-50.918
							c-77.571-66.943-82.566-174.546-82.739-179.092c-0.395-10.313,7.644-18.994,17.957-19.395
							c10.359-0.234,18.979,7.632,19.392,17.93c0.054,1.221,4.861,96.411,70.029,152.446c39.09,33.613,92.686,46.977,159.273,39.722
							c10.281-1.143,19.485,6.294,20.603,16.557c1.118,10.259-6.294,19.482-16.555,20.601
							C2916.36,2077.515,2903.596,2078.228,2891.262,2078.228z"/>
					</g>
				</g>
			</g>
		</g>
		<g>
			<g>
				<g>
					<path style="fill:#0F227A;" d="M1498.016,3106.772l-304.7,308.801l276.988-333.884c6.596-7.952,18.389-9.048,26.34-2.454
						c7.951,6.597,9.05,18.389,2.454,26.34C1498.759,3105.984,1498.38,3106.399,1498.016,3106.772z"/>
				</g>
			</g>
		</g>
		<g>
			<g>
				<g>
					<path style="fill:#0F227A;" d="M1369.607,2745.076l-582.438,670.498l553.711-694.409c6.436-8.071,18.197-9.397,26.269-2.961
						s9.398,18.198,2.961,26.27C1369.962,2744.658,1369.761,2744.897,1369.607,2745.076z"/>
				</g>
			</g>
		</g>
		<g>
			<g>
				<g>
					<path style="fill:#0F227A;" d="M1298.92,2373.145l-477.569,484.541l450.237-510.037c6.833-7.742,18.648-8.477,26.389-1.646
						c7.74,6.833,8.477,18.65,1.643,26.389C1299.406,2372.637,1299.143,2372.915,1298.92,2373.145z"/>
				</g>
			</g>
		</g>
		<g>
			<g>
				<g>
					<path style="fill:#0F227A;" d="M2631.991,2254.084l-470.95,540.42l442.141-564.233c6.367-8.127,18.119-9.553,26.245-3.184
						c8.127,6.367,9.553,18.118,3.185,26.245C2632.423,2253.572,2632.189,2253.855,2631.991,2254.084z"/>
				</g>
			</g>
		</g>
		<g>
			<g>
				<g>
					<path style="fill:#0F227A;" d="M2488.314,2283.188l-222.389,235.154l193.795-259.224c6.19-8.281,17.921-9.976,26.201-3.784
						c8.28,6.189,9.974,17.92,3.784,26.201C2489.272,2282.114,2488.799,2282.673,2488.314,2283.188z"/>
				</g>
			</g>
		</g>
		<g>
			<g>
				<g>
					<path style="fill:#0F227A;" d="M1322.56,2673.979l-302.668,321.848l274.382-346.279c6.415-8.096,18.181-9.46,26.277-3.044
						s9.459,18.181,3.044,26.277C1323.271,2673.188,1322.909,2673.606,1322.56,2673.979z"/>
				</g>
			</g>
		</g>
		<g>
			<g>
				<g>
					<path style="fill:#0F227A;" d="M1381.905,3130.383l-112.723,105.603l84.056-129.587c5.659-8.723,17.317-11.208,26.04-5.552
						c8.724,5.659,11.208,17.317,5.55,26.042C1383.998,3128.169,1382.965,3129.377,1381.905,3130.383z"/>
				</g>
			</g>
		</g>
		<g>
			<g>
				<g>
					<path style="fill:#0F227A;" d="M1343.161,2224.292l-246.18,224.778l219.47-250.923c6.806-7.781,18.631-8.572,26.412-1.765
						c7.781,6.804,8.572,18.63,1.766,26.411C1344.167,2223.323,1343.667,2223.828,1343.161,2224.292z"/>
				</g>
			</g>
		</g>
	</g>
</g>
</svg>
